{"glyphs":{"0":{"ha":872,"x_min":0,"x_max":0,"o":"m 761 224 b 808 557 806 326 819 446 b 718 814 799 647 771 740 b 454 968 672 876 539 968 b 121 733 317 968 176 854 b 79 301 60 603 44 442 b 428 -10 124 132 244 -10 b 761 224 582 -10 701 85 z m 314 422 b 392 672 301 504 315 639 b 421 678 400 676 411 678 b 474 661 440 678 460 672 b 531 367 549 607 560 454 b 428 276 514 319 483 276 b 314 422 353 276 322 360 z "},"1":{"ha":514,"x_min":0,"x_max":0,"o":"m 438 47 b 438 56 439 50 439 53 b 417 265 422 124 418 194 b 432 703 414 411 428 557 b 431 899 433 733 439 869 b 306 968 417 949 351 968 b 232 953 279 968 254 964 b 92 856 182 926 144 876 b 47 782 54 840 47 825 b 150 646 49 713 92 646 b 182 651 161 646 171 647 b 156 51 171 451 175 250 b 217 6 153 22 188 10 b 268 1 233 3 251 1 b 438 47 297 1 426 14 z "},"2":{"ha":806,"x_min":0,"x_max":0,"o":"m 681 3 b 740 85 714 4 733 53 b 740 193 746 121 747 158 b 685 271 735 226 718 271 b 394 268 588 271 492 268 b 697 589 514 347 649 447 b 708 751 714 640 717 697 b 442 964 686 883 571 964 b 374 956 418 964 396 961 b 108 793 304 936 140 857 b 99 731 100 775 97 751 b 232 569 106 669 161 569 b 272 585 246 569 260 574 b 353 647 297 607 324 629 b 397 664 367 654 381 663 b 453 628 422 668 449 653 b 442 583 457 613 450 596 b 386 518 428 558 407 538 b 82 261 350 483 118 294 b 54 182 61 242 54 210 b 165 0 56 129 96 0 b 681 3 338 0 508 -4 z "},"3":{"ha":725,"x_min":0,"x_max":0,"o":"m 644 190 b 668 338 664 236 674 288 b 518 535 657 428 601 499 b 583 788 568 607 597 701 b 360 968 567 903 474 968 b 138 893 282 968 200 939 b 67 822 111 874 82 851 b 63 738 54 796 54 764 b 189 651 81 685 133 638 b 240 681 208 656 224 669 b 336 718 267 697 304 718 b 368 707 349 718 360 715 b 339 631 390 683 367 649 b 256 606 315 615 285 608 b 189 483 204 603 190 535 b 226 363 189 444 196 390 b 257 351 233 356 246 351 b 346 354 268 351 335 354 b 432 333 368 354 419 353 b 414 265 446 310 436 281 b 346 249 394 253 369 249 b 182 290 288 249 235 265 b 151 296 172 294 161 297 b 110 256 133 290 119 272 b 101 78 82 207 63 118 b 318 8 154 25 247 8 b 644 190 456 8 585 58 z "},"4":{"ha":890,"x_min":0,"x_max":0,"o":"m 806 38 b 822 89 815 53 822 71 b 815 122 822 100 819 111 b 803 142 814 125 804 139 b 779 458 775 243 776 353 b 803 858 783 592 794 725 b 771 926 804 883 790 911 b 669 963 742 947 706 963 b 539 876 625 963 546 926 b 517 547 535 833 519 590 b 410 525 481 535 447 525 b 329 542 382 525 354 532 b 485 822 343 581 468 785 b 374 967 515 892 447 958 b 361 967 369 967 365 967 b 300 949 339 967 317 961 b 46 464 240 904 57 568 b 54 385 43 438 44 410 b 333 246 97 276 226 246 b 515 269 394 246 456 256 b 571 42 521 199 531 103 b 690 -12 600 7 644 -12 b 806 38 732 -12 779 4 z "},"5":{"ha":783,"x_min":0,"x_max":0,"o":"m 722 271 b 669 526 736 357 715 451 b 422 643 615 618 522 643 b 289 631 378 643 333 638 b 289 707 294 656 285 682 b 357 704 311 704 333 704 b 588 731 435 704 513 715 b 635 838 628 739 638 796 b 592 942 632 875 619 917 b 553 958 582 951 567 957 b 374 968 493 964 433 968 b 233 961 326 968 279 967 b 106 788 153 950 122 854 b 76 626 93 735 86 681 b 126 435 68 568 75 464 b 171 429 140 428 157 426 b 268 438 203 435 236 438 b 431 388 322 438 393 429 b 449 313 447 368 453 338 b 386 261 440 278 425 261 b 176 339 325 261 233 310 b 158 343 171 342 164 343 b 69 171 100 343 69 215 b 86 107 69 149 74 125 b 379 -22 151 21 275 -22 b 722 271 554 -22 696 99 z "},"6":{"ha":874,"x_min":0,"x_max":0,"o":"m 728 100 b 819 315 779 158 811 238 b 801 435 824 356 818 397 b 526 594 753 539 638 594 b 329 551 458 594 392 575 b 476 707 340 643 376 707 b 597 683 518 707 560 696 b 633 678 610 679 621 678 b 690 701 654 678 676 685 b 708 892 735 746 742 839 b 496 967 668 949 560 967 b 99 681 308 967 160 853 b 92 254 50 547 50 390 b 465 0 147 68 285 0 b 728 100 569 0 656 15 z m 338 360 b 476 397 382 379 431 397 b 542 368 500 397 529 389 b 503 256 563 329 543 272 b 465 247 492 250 478 247 b 338 360 400 247 354 301 z "},"7":{"ha":779,"x_min":0,"x_max":0,"o":"m 424 31 b 444 81 435 44 442 63 b 590 517 464 233 517 382 b 704 739 631 590 672 663 b 717 946 731 801 771 906 b 656 961 700 958 676 961 b 326 969 546 964 436 969 b 140 963 264 969 201 968 b 75 904 103 958 88 938 b 50 744 54 854 47 799 b 99 643 53 701 64 643 b 113 646 103 643 107 644 b 394 679 201 678 300 679 b 224 365 338 575 272 474 b 147 101 186 282 157 193 b 163 40 144 81 150 57 b 300 -15 190 1 254 -15 b 424 31 344 -15 393 -3 z "},"8":{"ha":878,"x_min":0,"x_max":0,"o":"m 678 51 b 776 415 806 128 856 290 b 689 497 754 449 724 479 b 783 629 732 531 767 578 b 776 785 799 681 796 736 b 511 963 731 893 618 938 b 451 968 492 967 472 968 b 138 843 356 968 201 924 b 75 693 101 803 78 747 b 107 567 74 649 85 606 b 186 486 126 535 156 507 l 185 486 b 135 96 51 396 22 211 b 432 -11 207 21 331 -11 b 678 51 513 -11 608 8 z m 343 225 b 325 322 313 249 303 290 b 424 364 346 351 385 364 b 496 349 450 364 475 358 b 540 249 536 331 563 286 b 431 201 521 213 469 201 b 343 225 401 201 368 208 z m 332 667 b 335 736 318 689 318 715 b 429 775 354 763 392 775 b 500 760 454 775 481 769 b 536 663 538 740 561 697 b 433 622 518 635 474 622 b 332 667 397 622 351 632 z "},"9":{"ha":874,"x_min":0,"x_max":0,"o":"m 776 288 b 783 714 825 421 825 578 b 407 967 728 903 588 967 b 146 868 301 967 221 953 b 56 653 94 810 64 729 b 74 533 51 613 57 569 b 349 374 121 429 238 374 b 544 417 418 374 481 392 b 399 261 533 325 499 261 b 278 285 356 261 315 272 b 240 290 265 289 253 290 b 183 267 218 290 199 282 b 167 76 140 222 132 129 b 379 1 204 19 317 1 b 776 288 567 1 715 114 z m 344 585 b 335 679 321 606 321 651 b 407 721 350 707 375 721 b 536 608 475 721 519 669 b 393 571 501 593 440 571 b 344 585 374 571 357 575 z "},"\u0000":{"ha":0,"x_min":0,"x_max":0,"o":""},"\r":{"ha":0,"x_min":0,"x_max":0,"o":""}," ":{"ha":347,"x_min":0,"x_max":0,"o":""},"\n":{"ha":0,"x_min":0,"x_max":0,"o":""},"!":{"ha":469,"x_min":0,"x_max":0,"o":"m 350 382 b 358 404 356 389 358 396 b 403 903 358 571 394 736 b 247 971 404 958 290 971 b 63 915 197 971 83 961 b 60 893 60 908 60 900 b 111 601 78 796 97 699 b 119 392 119 532 128 461 b 171 356 117 368 149 360 b 229 351 186 353 207 351 b 350 382 276 351 329 358 z m 319 15 b 381 139 357 43 386 93 b 250 247 374 204 314 247 b 122 165 186 247 154 215 b 126 42 97 126 99 76 b 238 -12 154 7 196 -12 b 319 15 267 -12 294 -3 z "},"\"":{"ha":669,"x_min":0,"x_max":0,"o":"m 624 729 b 622 903 628 750 617 882 b 517 1019 636 964 579 1011 b 496 1021 510 1021 503 1021 b 363 915 429 1021 368 985 b 368 731 360 888 365 757 b 379 704 369 721 375 713 b 496 646 401 667 453 646 b 624 729 547 646 611 675 z m 307 725 b 306 899 313 746 301 878 b 201 1015 319 958 263 1007 b 181 1017 194 1017 188 1017 b 47 911 115 1017 53 981 b 53 726 43 883 50 753 b 64 700 54 717 58 708 b 181 642 86 663 136 642 b 307 725 233 642 294 669 z "},"‟":{"ha":669,"x_min":0,"x_max":0,"o":"m 624 729 b 622 903 628 750 617 882 b 517 1019 636 964 579 1011 b 496 1021 510 1021 503 1021 b 363 915 429 1021 368 985 b 368 731 360 888 365 757 b 379 704 369 721 375 713 b 496 646 401 667 453 646 b 624 729 547 646 611 675 z m 307 725 b 306 899 313 746 301 878 b 201 1015 319 958 263 1007 b 181 1017 194 1017 188 1017 b 47 911 115 1017 53 981 b 53 726 43 883 50 753 b 64 700 54 717 58 708 b 181 642 86 663 136 642 b 307 725 233 642 294 669 z "},"#":{"ha":1376,"x_min":0,"x_max":0,"o":"m 842 1 b 886 32 851 4 881 24 b 907 61 894 42 901 50 b 989 233 921 83 978 210 b 1104 231 1028 233 1065 233 b 1160 247 1124 228 1144 236 b 1138 418 1224 293 1211 392 b 1072 426 1117 426 1094 425 b 1126 543 1089 465 1108 504 b 1192 539 1136 542 1183 539 b 1222 529 1203 536 1213 531 b 1272 535 1240 528 1258 528 b 1324 578 1293 544 1314 558 b 1333 644 1332 599 1339 622 b 1218 731 1318 703 1276 725 b 1261 817 1231 760 1242 792 b 1250 900 1279 842 1272 881 b 1113 949 1213 935 1164 949 b 958 872 1049 949 985 925 b 897 744 936 829 918 786 b 729 740 842 743 786 742 b 782 844 736 757 772 831 b 769 929 800 869 793 908 b 643 976 736 958 690 976 b 496 925 594 976 529 963 b 404 743 475 901 418 772 b 278 747 363 744 319 746 b 247 750 274 747 251 750 b 185 726 225 749 200 742 b 157 685 174 714 161 701 b 153 635 153 668 149 651 b 175 589 157 618 163 601 b 217 561 188 578 200 565 b 311 551 247 553 281 553 l 265 447 b 178 457 251 449 190 453 b 143 464 165 461 154 464 b 69 301 67 464 13 368 b 115 271 81 288 97 276 b 185 260 138 263 161 263 b 135 160 178 244 146 172 b 119 140 131 153 124 147 b 190 22 90 92 135 39 b 272 10 217 15 244 10 b 407 58 315 10 378 26 b 499 238 429 82 486 208 b 664 232 554 236 608 233 b 614 132 657 217 625 144 b 600 114 613 129 601 115 b 600 44 586 96 586 63 b 628 15 608 35 615 24 b 749 -18 664 -7 706 -18 b 842 1 781 -18 813 -11 z m 582 429 b 635 546 599 468 617 507 b 803 547 692 546 747 547 b 747 425 783 507 765 467 b 582 429 692 426 636 428 z "},"$":{"ha":836,"x_min":0,"x_max":0,"o":"m 583 -100 b 585 24 588 -82 585 4 b 771 207 678 47 749 113 b 744 390 783 267 774 336 b 665 483 726 426 696 457 b 524 586 621 521 572 553 b 417 682 499 603 425 654 b 439 717 411 699 422 715 b 526 664 464 717 508 679 b 633 608 557 639 593 608 b 743 740 692 608 733 683 b 733 810 747 764 749 792 b 590 921 697 857 644 893 l 590 1028 b 457 1126 590 1094 514 1126 b 324 1046 406 1126 336 1101 b 321 969 321 1035 321 982 b 126 832 238 957 163 911 b 118 649 101 776 100 707 b 243 475 139 581 186 517 b 364 401 282 447 325 426 b 429 322 390 385 438 353 b 411 299 428 313 419 304 b 371 290 400 293 388 290 b 186 347 313 290 228 326 b 167 351 179 350 174 351 b 92 278 135 351 108 313 b 69 90 68 232 40 132 b 92 72 75 82 83 78 b 315 10 161 39 239 19 b 318 -100 315 -7 314 -83 b 451 -179 332 -156 401 -179 b 583 -100 501 -179 571 -154 z "},"%":{"ha":847,"x_min":0,"x_max":0,"o":"m 331 43 b 760 833 478 304 613 572 b 771 874 767 846 772 860 b 756 917 771 889 764 904 b 626 969 726 951 671 969 b 513 911 579 969 535 951 b 88 154 369 660 229 407 b 76 103 78 139 74 119 b 236 -7 89 36 175 -7 b 331 43 276 -7 310 7 z m 246 774 b 153 904 271 844 215 904 b 86 878 131 904 107 896 b 125 707 26 824 47 728 b 150 704 133 704 142 704 b 246 774 194 704 231 733 z m 736 146 b 775 178 743 150 771 171 b 796 224 785 192 794 207 b 774 303 799 251 793 283 b 697 336 749 325 732 336 b 596 261 660 336 606 296 b 592 211 590 244 588 226 b 614 165 596 194 601 178 b 690 132 635 142 660 132 b 736 146 707 132 724 136 z "},"&":{"ha":932,"x_min":0,"x_max":0,"o":"m 557 64 b 703 -25 593 28 649 -22 b 878 94 775 -25 846 32 b 863 178 894 126 899 169 b 743 225 843 182 761 214 b 851 390 782 264 838 336 b 856 428 856 403 857 415 b 689 540 847 488 747 540 b 660 533 678 540 668 539 b 649 513 654 528 650 519 b 578 392 638 454 618 432 b 526 449 560 410 543 429 b 664 632 586 496 639 560 b 671 792 682 682 686 742 b 417 963 639 900 524 963 b 143 754 293 963 175 886 b 194 471 121 661 149 554 b 57 224 119 415 65 318 b 89 67 51 171 61 113 b 310 -36 133 -7 228 -36 b 557 64 401 -36 493 -1 z m 368 667 b 383 731 367 689 369 713 b 407 744 390 740 399 744 b 464 682 431 744 457 714 b 454 629 468 664 463 644 b 392 579 439 607 415 592 b 368 667 379 606 369 636 z m 303 215 b 264 258 283 221 263 239 b 310 314 268 282 290 300 b 401 219 339 282 369 250 b 342 210 382 214 361 210 b 303 215 328 210 315 211 z "},"'":{"ha":354,"x_min":0,"x_max":0,"o":"m 307 725 b 306 899 313 746 301 878 b 201 1015 319 958 263 1007 b 181 1017 194 1017 188 1017 b 47 911 115 1017 53 981 b 53 726 43 883 50 753 b 64 700 54 717 58 708 b 181 642 86 663 136 642 b 307 725 233 642 294 669 z "},"‛":{"ha":354,"x_min":0,"x_max":0,"o":"m 307 725 b 306 899 313 746 301 878 b 201 1015 319 958 263 1007 b 181 1017 194 1017 188 1017 b 47 911 115 1017 53 981 b 53 726 43 883 50 753 b 64 700 54 717 58 708 b 181 642 86 663 136 642 b 307 725 233 642 294 669 z "},"(":{"ha":556,"x_min":0,"x_max":0,"o":"m 600 -260 b 579 -69 706 -231 688 -81 b 411 83 463 -58 443 -21 b 371 336 386 165 375 250 b 385 644 364 439 368 543 b 515 946 400 740 436 882 b 569 975 531 958 550 967 b 639 1018 596 983 619 999 b 668 1089 656 1036 669 1064 b 622 1153 665 1115 646 1142 b 565 1167 606 1163 585 1167 b 408 1115 511 1167 451 1144 b 100 692 258 1013 151 865 b 107 183 51 529 54 344 b 331 -168 150 51 229 -74 b 561 -265 383 -217 486 -265 b 600 -260 574 -265 588 -264 z "},")":{"ha":557,"x_min":0,"x_max":0,"o":"m 226 -168 b 376 19 285 -114 336 -50 b 457 692 494 222 524 469 b 149 1115 406 865 299 1013 b -7 1167 106 1144 46 1167 b -100 1122 -43 1167 -78 1154 b -11 974 -139 1063 -78 996 b 164 693 99 938 142 793 b 172 204 197 533 199 365 b 96 -28 161 133 139 32 b 53 -56 85 -40 69 -50 b -22 -69 29 -64 3 -67 b -40 -261 -133 -81 -149 -235 b -4 -265 -29 -264 -17 -265 b 226 -168 71 -265 174 -217 z "},"+":{"ha":740,"x_min":0,"x_max":0,"o":"m 479 178 b 521 243 500 193 517 217 b 524 350 526 278 525 314 b 543 350 528 350 540 353 b 597 329 560 335 578 329 b 674 375 628 329 657 346 b 697 483 692 407 701 446 b 600 596 690 536 654 586 b 517 599 572 601 544 600 l 521 653 b 526 714 524 674 532 694 b 389 799 514 767 443 799 b 242 717 336 799 254 778 b 229 586 235 674 229 631 b 139 594 199 588 169 590 b 64 549 114 597 76 571 b 43 492 54 531 46 511 b 64 390 39 457 46 418 b 106 353 75 375 89 361 b 236 338 126 343 214 338 l 236 301 b 208 247 221 288 210 267 b 242 182 208 224 222 197 b 368 142 278 157 324 142 b 479 178 403 142 453 156 z "},",":{"ha":349,"x_min":0,"x_max":0,"o":"m 294 58 b 308 163 304 92 317 128 b 182 257 299 221 236 257 b 51 174 128 257 75 226 b 40 93 40 149 33 119 b 63 58 43 79 50 65 b 96 43 74 53 85 50 b 118 15 106 38 115 28 b 113 -17 119 6 117 -7 b 81 -75 103 -36 89 -54 b 78 -104 78 -83 75 -94 b 144 -142 88 -126 122 -142 b 294 58 217 -142 267 -31 z "},"-":{"ha":740,"x_min":0,"x_max":0,"o":"m 667 350 b 697 488 693 389 703 440 b 594 619 690 542 656 613 b 507 621 565 624 536 622 b 275 607 431 617 353 608 b 157 614 236 607 196 607 b 122 614 146 615 133 617 b 42 471 69 600 39 525 b 128 329 44 417 64 340 b 250 318 169 324 208 318 b 543 333 347 318 444 331 b 599 307 557 319 578 307 b 667 350 625 307 651 328 z "},".":{"ha":351,"x_min":0,"x_max":0,"o":"m 311 115 b 265 229 322 153 299 208 b 183 256 238 247 217 256 b 138 249 168 256 153 254 b 100 229 124 244 113 236 b 54 174 79 215 67 194 b 39 96 39 151 36 122 b 124 3 42 57 88 13 b 168 -4 138 0 153 -4 b 311 115 240 -4 293 49 z "},":":{"ha":404,"x_min":0,"x_max":0,"o":"m 293 526 b 354 650 329 554 358 604 b 224 758 347 714 286 758 b 94 676 163 758 125 726 b 99 553 69 638 72 589 b 210 499 126 518 168 499 b 293 526 239 499 268 508 z m 322 115 b 276 229 333 153 310 208 b 194 256 249 247 228 256 b 149 249 179 256 164 254 b 111 229 135 244 124 236 b 65 174 90 215 78 194 b 50 96 50 151 47 122 b 135 3 53 57 99 13 b 179 -4 149 0 164 -4 b 322 115 251 -4 304 49 z "},";":{"ha":403,"x_min":0,"x_max":0,"o":"m 292 526 b 353 650 328 554 357 604 b 222 758 346 714 285 758 b 93 676 161 758 124 726 b 97 553 68 638 71 589 b 208 499 125 518 167 499 b 292 526 238 499 267 508 z m 307 58 b 321 163 317 92 329 128 b 194 257 311 221 249 257 b 64 174 140 257 88 226 b 53 93 53 149 46 119 b 75 58 56 79 63 65 b 108 43 86 53 97 50 b 131 15 118 38 128 28 b 125 -17 132 6 129 -7 b 93 -75 115 -36 101 -54 b 90 -104 90 -83 88 -94 b 157 -142 100 -126 135 -142 b 307 58 229 -142 279 -31 z "},"<":{"ha":704,"x_min":0,"x_max":0,"o":"m 642 254 b 643 364 657 289 657 331 b 594 424 633 388 617 413 b 378 521 567 438 406 508 b 532 626 431 554 482 589 b 594 689 556 644 581 664 b 568 856 622 744 611 814 b 493 886 549 874 519 886 b 433 867 472 886 450 879 b 381 826 426 863 388 832 b 117 646 293 765 199 714 b 50 553 88 621 61 589 b 51 453 40 521 40 485 b 151 346 67 406 108 368 b 496 188 263 288 381 239 b 538 179 510 182 524 179 b 642 254 582 179 624 210 z "},"=":{"ha":782,"x_min":0,"x_max":0,"o":"m 722 597 b 704 731 735 640 729 693 b 599 788 681 768 644 788 b 225 775 474 786 349 768 b 171 781 206 776 188 781 b 78 696 125 781 86 739 b 78 610 72 668 72 638 b 154 526 85 576 121 532 b 290 517 199 519 244 517 b 572 529 383 517 479 528 b 629 507 589 514 610 507 b 722 597 679 507 711 554 z m 703 235 b 686 369 715 278 710 331 b 581 425 661 407 625 426 b 206 414 456 425 331 407 b 151 419 186 415 168 419 b 58 333 106 419 67 376 b 58 249 53 306 53 276 b 135 164 65 215 101 169 b 265 156 178 157 221 156 b 553 168 361 156 457 167 b 611 146 569 153 590 146 b 703 235 661 146 692 192 z "},">":{"ha":706,"x_min":0,"x_max":0,"o":"m 210 188 b 554 346 325 239 443 288 b 646 432 592 365 628 394 b 626 607 674 489 667 557 b 556 672 607 632 582 653 b 342 815 486 724 413 767 b 272 868 318 831 296 850 b 215 886 256 881 235 886 b 122 838 179 886 142 868 b 96 753 107 813 93 783 b 139 654 99 717 110 676 b 208 600 147 647 199 607 b 328 521 247 572 288 547 b 131 433 263 492 196 463 b 68 244 58 401 32 314 b 171 179 88 206 129 179 b 210 188 183 179 197 182 z "},"?":{"ha":688,"x_min":0,"x_max":0,"o":"m 365 389 b 463 488 365 440 422 469 b 572 550 500 506 539 522 b 614 600 589 564 604 581 b 469 958 688 740 622 917 b 382 969 442 967 413 969 b 60 821 283 969 108 917 b 51 747 49 799 46 771 b 165 604 61 692 110 613 b 215 625 183 603 203 611 b 325 706 247 657 283 688 b 357 715 333 710 346 715 b 372 708 363 715 368 713 b 356 651 383 694 365 667 b 253 538 328 608 290 572 b 186 458 228 514 201 489 b 185 354 169 428 165 383 b 264 317 201 331 235 317 b 365 389 313 317 364 340 z m 413 97 b 367 211 424 135 399 190 b 283 238 338 228 318 238 b 200 211 249 238 229 228 b 139 118 171 193 149 150 b 185 6 129 82 153 26 b 265 -22 208 -10 238 -22 b 413 97 342 -22 390 29 z "},"@":{"ha":1260,"x_min":0,"x_max":0,"o":"m 1001 -82 b 1043 1 1024 -60 1042 -29 b 926 139 1047 60 982 121 b 892 143 915 142 904 143 b 836 117 869 143 851 135 b 646 26 790 57 721 26 b 274 440 435 26 282 244 b 424 765 267 563 325 688 b 647 843 488 817 565 843 b 999 550 813 843 992 728 b 964 453 1000 515 992 474 b 914 438 953 444 931 438 b 879 469 893 438 883 450 b 856 546 872 496 869 524 b 829 582 850 556 828 572 b 810 672 836 611 831 649 b 739 717 800 682 751 711 b 625 747 704 735 664 747 b 419 607 535 747 460 683 b 397 311 372 517 364 407 b 574 176 429 229 483 176 b 761 283 650 176 719 222 b 931 192 801 228 863 192 b 1158 358 1040 192 1117 264 b 1188 714 1203 468 1215 597 b 689 1058 1132 940 908 1058 b 199 811 486 1058 318 972 b 65 308 94 667 46 485 b 651 -204 106 -11 338 -204 b 1001 -82 767 -204 919 -171 z m 583 428 b 576 478 572 439 572 461 b 650 558 583 506 615 558 b 664 553 654 558 660 557 b 674 532 669 547 672 539 b 633 433 679 507 650 453 b 611 417 628 426 621 418 b 583 428 604 415 589 422 z "},"A":{"ha":867,"x_min":0,"x_max":0,"o":"m 788 18 b 843 67 813 26 849 42 b 633 900 788 347 708 624 b 529 964 622 939 564 957 b 442 971 500 968 471 971 b 264 910 392 971 282 961 b 101 415 201 747 147 583 b 24 74 69 303 40 189 b 90 18 19 44 63 28 b 213 1 117 10 168 1 b 286 15 243 1 269 4 b 301 40 293 21 297 32 b 328 185 317 88 322 136 b 542 188 356 183 515 188 b 572 43 544 169 568 61 b 667 -3 582 7 624 -3 b 788 18 707 -3 750 3 z m 432 736 b 506 381 474 622 486 500 b 356 378 456 381 406 379 b 432 736 374 499 400 618 z "},"B":{"ha":767,"x_min":0,"x_max":0,"o":"m 240 -12 b 726 249 419 -12 713 18 b 690 388 729 296 717 347 b 599 474 668 424 635 453 b 671 635 639 517 664 576 b 619 850 679 708 661 790 b 300 972 544 956 419 972 b 165 965 256 972 211 969 b 85 836 100 957 89 890 b 82 724 82 799 82 761 b 83 93 75 514 79 303 b 240 -12 83 10 172 -12 z m 333 800 b 404 778 358 800 385 793 b 372 578 471 724 451 604 b 333 571 360 572 347 571 b 333 800 335 647 333 724 z m 339 360 b 418 338 367 360 396 354 b 417 188 465 300 464 226 b 342 164 396 171 368 164 b 339 360 342 229 340 294 z "},"C":{"ha":771,"x_min":0,"x_max":0,"o":"m 704 143 b 728 268 722 181 729 225 b 713 303 728 281 722 294 b 607 333 688 328 640 333 b 488 296 561 333 507 324 b 482 272 483 289 482 281 b 457 196 482 247 478 214 b 425 188 449 190 436 188 b 322 342 365 188 332 296 b 343 669 300 449 306 567 b 428 771 357 708 388 771 b 468 710 461 771 468 736 b 482 676 468 697 474 685 b 590 650 503 658 549 650 b 660 658 617 650 642 653 b 711 707 686 668 707 678 b 676 853 713 757 703 810 b 432 971 628 933 529 971 b 56 603 215 971 90 799 b 92 235 33 482 43 349 b 429 3 157 89 269 3 b 704 143 538 3 654 39 z "},"D":{"ha":822,"x_min":0,"x_max":0,"o":"m 240 -12 b 428 0 303 -12 367 -12 b 732 268 564 25 676 147 b 768 631 782 378 797 513 b 383 969 722 819 574 949 b 306 974 357 972 331 974 b 165 965 258 974 213 969 b 90 882 117 961 100 925 b 82 724 81 831 83 776 b 83 93 75 514 79 303 b 146 4 83 51 107 19 b 240 -12 175 -10 208 -12 z m 333 743 b 406 729 357 744 383 740 b 511 553 469 699 503 618 b 475 308 525 471 515 381 b 333 215 446 253 397 215 z "},"E":{"ha":681,"x_min":0,"x_max":0,"o":"m 571 4 b 582 6 575 4 579 6 b 633 110 617 17 633 74 b 625 164 635 128 632 147 b 597 196 621 176 610 190 b 378 207 563 210 414 207 b 376 356 378 256 378 306 b 521 358 396 356 503 357 b 568 424 547 360 563 399 b 542 547 575 460 574 528 b 375 560 515 565 407 560 b 374 772 375 631 374 701 b 496 768 414 772 456 768 b 628 839 556 768 614 772 b 607 960 632 869 629 938 b 507 975 590 974 529 975 b 117 947 433 979 182 983 b 88 919 104 940 93 932 b 79 879 81 907 81 893 b 83 63 78 607 83 335 b 90 38 83 54 86 44 b 136 11 101 22 119 15 b 206 1 158 4 182 3 b 571 4 251 -1 524 4 z "},"F":{"ha":657,"x_min":0,"x_max":0,"o":"m 378 64 b 376 356 378 161 376 258 b 524 358 396 356 503 356 b 565 431 550 363 563 404 b 539 550 569 464 567 532 b 374 560 511 568 406 560 l 374 772 b 579 778 442 772 510 778 b 606 790 589 778 599 783 b 633 882 626 814 632 850 b 615 951 633 906 632 933 b 508 975 599 971 535 975 b 222 976 474 975 258 978 b 128 964 192 975 158 974 b 79 885 89 950 79 924 b 83 63 79 611 83 336 b 228 0 83 11 192 0 b 378 64 269 0 378 10 z "},"G":{"ha":807,"x_min":0,"x_max":0,"o":"m 678 140 b 717 365 711 210 718 290 b 726 372 717 369 724 369 b 760 407 739 381 751 393 b 767 490 774 431 778 465 b 724 542 757 511 743 532 b 650 554 696 553 679 554 b 499 549 600 554 550 546 b 454 544 485 550 468 549 b 483 356 354 508 376 365 b 446 193 482 314 481 217 b 410 189 439 188 418 188 b 322 342 364 203 332 293 b 343 669 300 449 306 567 b 428 771 357 708 388 771 b 468 710 461 771 468 736 b 482 676 468 697 474 685 b 590 650 503 658 549 650 b 660 658 617 650 642 653 b 711 707 686 668 707 678 b 676 853 713 757 703 810 b 432 971 628 933 529 971 b 56 603 215 971 90 799 b 104 208 32 474 44 328 b 426 3 168 81 282 3 b 678 140 538 3 626 39 z "},"H":{"ha":938,"x_min":0,"x_max":0,"o":"m 850 36 b 858 57 856 42 858 50 b 854 892 858 336 851 614 b 710 969 854 958 760 969 b 560 893 661 969 560 954 b 560 581 558 789 558 685 l 375 581 b 375 894 374 685 374 790 b 228 971 375 960 275 971 b 81 894 179 971 81 956 b 83 58 76 615 83 338 b 231 1 83 8 190 1 b 371 38 283 1 347 10 b 379 60 376 43 379 51 b 376 386 379 168 378 278 l 561 386 b 563 57 563 276 563 167 b 710 0 564 7 669 0 b 850 36 763 0 826 8 z "},"I":{"ha":458,"x_min":0,"x_max":0,"o":"m 371 38 b 379 60 376 43 379 51 b 375 894 379 338 372 615 b 228 971 375 960 275 971 b 81 894 179 971 81 956 b 83 58 76 615 83 338 b 231 1 83 8 190 1 b 371 38 283 1 347 10 z "},"J":{"ha":765,"x_min":0,"x_max":0,"o":"m 693 292 b 693 889 693 492 690 690 b 526 972 693 954 576 972 b 397 889 468 972 403 958 b 397 388 396 721 397 554 b 361 288 399 357 388 301 b 349 285 357 285 353 285 b 307 344 326 285 311 317 b 306 383 306 357 306 371 b 232 433 307 417 264 429 b 201 435 222 435 211 435 b 21 319 124 435 28 408 b 60 146 19 260 29 197 b 363 -3 118 40 247 -3 b 693 292 564 -3 693 85 z "},"K":{"ha":890,"x_min":0,"x_max":0,"o":"m 842 40 b 835 192 850 67 840 164 b 650 522 814 315 761 453 b 818 871 739 615 790 744 b 817 908 821 883 822 897 b 644 975 794 956 693 975 b 546 926 604 975 553 965 b 375 582 528 797 499 650 b 375 894 374 686 374 790 b 228 971 375 960 275 971 b 81 894 179 971 81 956 b 83 58 76 615 83 338 b 231 1 83 8 190 1 b 371 38 283 1 347 10 b 379 60 376 43 379 51 b 376 383 379 167 378 275 b 403 388 381 383 400 388 b 569 235 507 383 553 336 b 575 51 578 175 575 113 b 710 -12 575 -4 665 -12 b 842 40 747 -12 826 -1 z "},"L":{"ha":642,"x_min":0,"x_max":0,"o":"m 569 4 b 582 6 574 4 579 6 b 633 110 617 17 633 74 b 625 164 635 128 632 147 b 597 196 621 176 610 190 b 378 207 563 210 414 207 b 375 893 376 435 372 664 b 217 972 375 961 265 972 b 79 888 157 972 83 960 b 83 63 78 613 83 338 b 90 38 83 54 86 44 b 136 11 101 22 119 15 b 206 1 158 4 182 3 b 569 4 251 -1 524 4 z "},"M":{"ha":1286,"x_min":0,"x_max":0,"o":"m 379 65 b 375 513 379 214 375 363 b 539 124 431 383 492 256 b 642 81 551 90 610 81 b 750 125 675 81 736 90 b 904 507 804 251 860 376 l 904 65 b 1056 0 904 10 1013 0 b 1200 63 1096 0 1200 11 b 1208 599 1200 128 1208 533 b 1207 833 1210 676 1211 756 b 1114 964 1207 907 1194 949 b 1054 971 1094 969 1075 971 b 871 903 997 971 906 954 b 649 549 794 786 725 665 b 407 926 611 606 456 881 b 239 972 367 963 290 972 b 93 926 181 972 122 960 b 79 875 81 913 79 893 b 83 63 78 604 83 333 b 140 11 83 39 118 18 b 231 -1 169 3 200 -1 b 379 65 272 -1 379 11 z "},"N":{"ha":988,"x_min":0,"x_max":0,"o":"m 811 4 b 910 58 849 8 907 22 l 910 81 b 904 911 910 183 903 808 b 758 975 868 953 813 975 b 611 896 710 975 617 954 b 621 483 607 842 621 538 b 410 857 539 600 482 733 b 226 972 361 942 325 972 b 79 888 175 972 82 954 b 83 63 78 613 83 338 b 229 0 83 11 192 0 b 379 61 268 0 379 10 b 379 457 379 193 381 325 b 618 47 417 403 589 106 b 711 1 633 13 676 4 b 811 4 744 -3 779 0 z "},"O":{"ha":863,"x_min":0,"x_max":0,"o":"m 458 1 b 814 504 751 8 814 265 b 422 972 810 746 685 972 b 94 733 265 972 154 872 b 44 478 60 654 43 564 b 458 1 49 213 179 1 z m 417 279 b 326 424 358 288 335 376 b 326 571 319 472 319 522 b 431 717 335 624 363 717 b 549 524 517 717 544 590 b 533 382 551 476 547 426 b 475 292 522 347 504 313 b 417 279 458 281 436 275 z "},"P":{"ha":767,"x_min":0,"x_max":0,"o":"m 379 61 b 376 346 379 96 378 311 b 664 464 481 357 590 386 b 647 876 774 583 768 769 b 510 947 608 910 560 932 b 229 972 419 975 324 978 b 139 956 199 971 168 967 b 79 888 104 944 83 924 b 83 63 78 613 83 338 b 229 0 83 11 192 0 b 379 61 268 0 379 10 z m 374 775 b 465 601 460 774 500 679 b 375 542 447 564 417 542 b 374 775 374 619 374 697 z "},"Q":{"ha":882,"x_min":0,"x_max":0,"o":"m 842 35 b 836 56 843 43 842 49 b 744 164 807 93 776 129 b 814 504 801 265 815 388 b 422 972 810 746 685 972 b 94 733 265 972 154 872 b 44 478 60 654 43 564 b 450 1 47 222 179 1 b 578 21 494 1 538 7 b 639 -81 597 -12 617 -47 b 646 -87 640 -83 643 -86 b 667 -93 651 -92 658 -93 b 842 35 722 -93 836 -17 z m 390 290 b 332 596 315 342 311 507 b 429 717 342 644 371 717 b 479 700 447 717 465 710 b 538 399 551 647 560 486 b 503 435 528 413 518 429 b 481 439 496 438 488 439 b 446 432 468 439 457 436 b 382 357 415 419 376 389 b 431 278 385 342 422 290 b 390 290 417 278 401 282 z "},"R":{"ha":822,"x_min":0,"x_max":0,"o":"m 376 47 b 379 76 379 56 379 67 b 378 206 378 119 378 163 b 543 17 397 182 524 42 b 581 3 551 7 567 3 b 740 79 635 3 700 46 b 789 165 764 99 800 136 b 760 201 785 179 771 190 b 581 399 694 263 640 333 b 710 518 635 421 683 467 b 728 749 746 588 751 674 b 300 974 669 935 469 974 b 132 953 247 974 181 974 b 79 875 94 939 79 914 b 83 63 78 604 83 333 b 140 11 83 39 118 18 b 228 0 169 3 199 0 b 376 47 269 0 358 11 z m 374 775 b 443 750 399 775 425 767 b 471 701 456 736 465 719 b 375 542 493 628 453 543 b 374 775 374 619 374 697 z "},"S":{"ha":801,"x_min":0,"x_max":0,"o":"m 754 219 b 732 379 764 272 756 331 b 647 483 714 419 682 454 b 506 586 603 521 554 553 b 399 682 481 603 407 654 b 421 717 393 699 404 715 b 508 664 446 717 490 679 b 615 608 539 639 575 608 b 725 740 674 608 715 683 b 715 810 729 764 731 792 b 361 974 638 910 483 974 b 97 804 242 974 136 921 b 100 649 82 754 85 697 b 225 475 121 581 168 517 b 346 401 264 447 307 426 b 411 322 372 385 419 353 b 393 299 410 313 401 304 b 353 290 382 293 369 290 b 168 347 294 290 210 326 b 149 351 161 350 156 351 b 74 278 117 351 90 313 b 51 90 50 232 22 132 b 164 39 67 69 139 46 b 407 3 242 15 325 3 b 754 219 557 3 726 51 z "},"T":{"ha":758,"x_min":0,"x_max":0,"o":"m 525 38 b 533 60 531 43 533 51 b 529 783 533 301 528 542 b 697 785 585 785 642 785 b 750 854 728 785 744 824 b 732 960 756 889 753 931 b 697 979 724 971 710 979 b 63 979 486 979 274 974 b 8 901 28 979 11 936 b 47 788 4 865 13 803 b 64 785 53 786 58 785 b 233 782 121 783 176 782 b 239 58 233 540 239 300 b 385 1 239 7 344 1 b 525 38 438 1 501 10 z "},"U":{"ha":901,"x_min":0,"x_max":0,"o":"m 807 310 b 825 910 860 503 844 710 b 676 975 825 965 714 975 b 556 939 640 975 581 971 b 547 907 549 931 546 918 b 543 582 556 799 554 690 b 440 338 538 529 515 338 b 358 447 383 338 367 403 b 353 606 350 499 351 553 b 368 921 356 711 367 815 b 214 976 368 971 250 976 b 97 957 175 976 135 972 b 64 921 82 951 64 938 b 69 469 63 771 56 619 b 440 -18 89 229 158 -18 b 807 310 651 -18 757 125 z "},"V":{"ha":868,"x_min":0,"x_max":0,"o":"m 635 71 b 844 903 710 347 788 622 b 843 918 846 908 844 913 b 669 971 824 954 710 971 b 575 929 639 971 583 965 b 501 557 543 806 526 681 b 428 282 483 464 460 371 b 369 628 410 397 392 513 b 299 939 350 732 325 835 b 208 969 292 965 233 969 b 86 949 167 969 125 963 b 25 893 60 939 21 921 b 264 61 63 631 171 307 b 442 -3 285 7 394 -3 b 635 71 499 -3 619 11 z "},"W":{"ha":1328,"x_min":0,"x_max":0,"o":"m 1099 81 b 1304 897 1171 351 1249 622 b 1239 951 1311 929 1271 944 b 1122 969 1201 960 1161 969 b 1032 917 1081 969 1043 961 b 888 278 982 704 963 483 b 810 707 865 422 843 565 b 671 753 803 744 703 753 b 524 690 629 753 536 742 b 425 282 492 554 472 414 b 297 932 390 500 353 718 b 285 953 296 940 290 947 b 190 969 267 965 228 969 b 39 924 143 969 71 964 b 28 858 25 906 25 881 b 261 61 72 585 160 318 b 442 -3 283 7 385 -3 b 633 72 507 -1 617 10 b 669 207 644 118 657 163 b 729 49 678 183 717 69 b 919 -7 758 -1 864 -7 b 1099 81 982 -7 1081 6 z "},"X":{"ha":840,"x_min":0,"x_max":0,"o":"m 757 97 b 799 188 782 119 818 158 b 600 486 735 289 667 388 b 796 786 667 585 733 685 b 738 913 822 829 778 882 b 618 968 703 939 663 963 b 569 964 603 971 585 971 b 547 944 560 960 553 953 b 421 749 507 878 464 814 b 294 944 378 814 335 878 b 242 969 283 963 263 969 b 39 824 172 969 50 890 b 46 786 36 810 39 799 b 243 486 108 685 175 585 b 43 188 175 388 107 289 b 92 92 24 156 63 115 b 257 13 129 60 207 13 b 285 21 268 13 278 15 b 292 29 288 22 290 26 b 421 225 333 94 378 160 b 550 29 465 160 508 94 b 586 14 557 18 571 14 b 757 97 642 14 719 63 z "},"Y":{"ha":936,"x_min":0,"x_max":0,"o":"m 638 57 b 651 94 646 67 650 81 b 639 378 656 132 639 340 b 781 614 682 458 732 536 b 928 878 832 700 882 788 b 906 918 936 893 921 910 b 686 967 853 951 751 967 b 610 940 656 967 618 964 b 550 788 589 890 572 838 b 486 678 532 749 511 713 b 396 838 447 725 422 782 b 336 947 378 875 358 911 b 286 967 324 964 307 967 b 72 901 221 967 117 925 b 7 842 51 890 8 865 b 10 832 7 839 8 835 b 322 372 104 672 214 522 l 322 100 b 489 0 322 21 428 0 b 638 57 547 0 608 17 z "},"Z":{"ha":871,"x_min":0,"x_max":0,"o":"m 796 6 b 815 15 803 7 810 11 b 838 160 844 43 849 121 b 817 196 833 172 828 188 b 792 200 810 200 800 201 b 649 194 744 194 697 194 b 403 200 567 196 485 200 b 586 464 471 283 529 374 b 772 750 647 560 704 658 b 800 811 785 768 796 789 b 671 969 813 889 749 969 b 131 975 492 969 311 975 b 88 946 113 975 96 961 b 72 865 75 922 71 893 b 131 781 75 828 92 781 l 429 781 b 235 469 361 678 300 572 b 71 249 185 393 129 319 b 31 126 43 217 24 168 b 222 6 44 35 144 8 b 585 3 267 6 540 3 b 796 6 614 3 767 1 z "},"^":{"ha":503,"x_min":0,"x_max":0,"o":"m 128 631 b 160 653 140 635 150 644 b 278 742 196 685 236 715 b 347 653 288 728 335 664 b 399 632 361 640 381 632 b 443 756 464 632 493 714 b 350 871 429 767 364 857 b 274 892 331 889 299 899 b 51 742 207 872 100 790 b 35 697 40 731 36 714 b 104 626 31 658 67 626 b 128 631 113 626 121 628 z "},"ˆ":{"ha":503,"x_min":0,"x_max":0,"o":"m 128 631 b 160 653 140 635 150 644 b 278 742 196 685 236 715 b 347 653 288 728 335 664 b 399 632 361 640 381 632 b 443 756 464 632 493 714 b 350 871 429 767 364 857 b 274 892 331 889 299 899 b 51 742 207 872 100 790 b 35 697 40 731 36 714 b 104 626 31 658 67 626 b 128 631 113 626 121 628 z "},"_":{"ha":676,"x_min":0,"x_max":0,"o":"m 104 -351 b 335 -346 182 -349 258 -349 b 578 -336 417 -343 497 -339 b 676 -217 639 -333 669 -271 b 658 -106 681 -178 675 -140 b 614 -54 649 -85 633 -65 b 579 -46 603 -49 590 -46 b 297 -57 485 -50 390 -54 b 125 -61 276 -57 146 -60 b 115 -57 122 -61 119 -57 b 50 -75 93 -54 65 -60 b 13 -278 1 -126 -14 -208 b 104 -351 29 -317 58 -351 z "},"`":{"ha":325,"x_min":0,"x_max":0,"o":"m 286 757 b 257 789 281 769 269 782 b 128 856 240 797 144 847 b 103 861 119 860 111 861 b 35 804 72 861 43 838 b 49 747 29 785 38 763 b 86 719 58 735 72 728 b 211 660 106 710 189 663 b 286 757 267 650 310 706 z "},"a":{"ha":876,"x_min":0,"x_max":0,"o":"m 793 18 b 849 67 818 26 854 42 b 639 900 793 347 714 624 b 535 964 628 939 569 957 b 447 971 506 968 476 971 b 269 910 397 971 288 961 b 107 415 207 747 153 583 b 29 74 75 303 46 189 b 96 18 25 44 68 28 b 218 1 122 10 174 1 b 292 15 249 1 275 4 b 307 40 299 21 303 32 b 333 185 322 88 328 136 b 547 188 361 183 521 188 b 578 43 550 169 574 61 b 672 -3 588 7 629 -3 b 793 18 713 -3 756 3 z m 438 736 b 511 381 479 622 492 500 b 361 378 461 381 411 379 b 438 736 379 499 406 618 z "},"b":{"ha":743,"x_min":0,"x_max":0,"o":"m 224 -12 b 710 249 403 -12 696 18 b 674 388 713 296 700 347 b 582 474 651 424 618 453 b 654 635 622 517 647 576 b 603 850 663 708 644 790 b 283 972 528 956 403 972 b 149 965 239 972 194 969 b 68 836 83 957 72 890 b 65 724 65 799 65 761 b 67 93 58 514 63 303 b 224 -12 67 10 156 -12 z m 317 800 b 388 778 342 800 368 793 b 356 578 454 724 435 604 b 317 571 343 572 331 571 b 317 800 318 647 317 724 z m 322 360 b 401 338 350 360 379 354 b 400 188 449 300 447 226 b 325 164 379 171 351 164 b 322 360 325 229 324 294 z "},"c":{"ha":758,"x_min":0,"x_max":0,"o":"m 699 143 b 722 268 717 181 724 225 b 707 303 722 281 717 294 b 601 333 682 328 635 333 b 482 296 556 333 501 324 b 476 272 478 289 476 281 b 451 196 476 247 472 214 b 419 188 443 190 431 188 b 317 342 360 188 326 296 b 338 669 294 449 300 567 b 422 771 351 708 382 771 b 463 710 456 771 463 736 b 476 676 463 697 468 685 b 585 650 497 658 543 650 b 654 658 611 650 636 653 b 706 707 681 668 701 678 b 671 853 707 757 697 810 b 426 971 622 933 524 971 b 50 603 210 971 85 799 b 86 235 28 482 38 349 b 424 3 151 89 264 3 b 699 143 532 3 649 39 z "},"d":{"ha":801,"x_min":0,"x_max":0,"o":"m 224 -12 b 411 0 286 -12 350 -12 b 715 268 547 25 660 147 b 751 631 765 378 781 513 b 367 969 706 819 557 949 b 289 974 340 972 314 974 b 149 965 242 974 196 969 b 74 882 100 961 83 925 b 65 724 64 831 67 776 b 67 93 58 514 63 303 b 129 4 67 51 90 19 b 224 -12 158 -10 192 -12 z m 317 743 b 389 729 340 744 367 740 b 494 553 453 699 486 618 b 458 308 508 471 499 381 b 317 215 429 253 381 215 z "},"e":{"ha":656,"x_min":0,"x_max":0,"o":"m 556 4 b 567 6 560 4 564 6 b 618 110 601 17 618 74 b 610 164 619 128 617 147 b 582 196 606 176 594 190 b 363 207 547 210 399 207 b 361 356 363 256 363 306 b 506 358 381 356 488 357 b 553 424 532 360 547 399 b 526 547 560 460 558 528 b 360 560 500 565 392 560 b 358 772 360 631 358 701 b 481 768 399 772 440 768 b 613 839 540 768 599 772 b 592 960 617 869 614 938 b 492 975 575 974 514 975 b 101 947 418 979 167 983 b 72 919 89 940 78 932 b 64 879 65 907 65 893 b 68 63 63 607 68 335 b 75 38 68 54 71 44 b 121 11 86 22 104 15 b 190 1 143 4 167 3 b 556 4 236 -1 508 4 z "},"f":{"ha":646,"x_min":0,"x_max":0,"o":"m 363 64 b 361 356 363 161 361 258 b 508 358 381 356 488 356 b 550 431 535 363 547 404 b 524 550 554 464 551 532 b 358 560 496 568 390 560 l 358 772 b 564 778 426 772 494 778 b 590 790 574 778 583 783 b 618 882 611 814 617 850 b 600 951 618 906 617 933 b 493 975 583 971 519 975 b 207 976 458 975 243 978 b 113 964 176 975 143 974 b 64 885 74 950 64 924 b 68 63 64 611 68 336 b 213 0 68 11 176 0 b 363 64 254 0 363 10 z "},"g":{"ha":796,"x_min":0,"x_max":0,"o":"m 672 140 b 711 365 706 210 713 290 b 721 372 711 369 718 369 b 754 407 733 381 746 393 b 761 490 768 431 772 465 b 718 542 751 511 738 532 b 644 554 690 553 674 554 b 493 549 594 554 544 546 b 449 544 479 550 463 549 b 478 356 349 508 371 365 b 440 193 476 314 475 217 b 404 189 433 188 413 188 b 317 342 358 203 326 293 b 338 669 294 449 300 567 b 422 771 351 708 382 771 b 463 710 456 771 463 736 b 476 676 463 697 468 685 b 585 650 497 658 543 650 b 654 658 611 650 636 653 b 706 707 681 668 701 678 b 671 853 707 757 697 810 b 426 971 622 933 524 971 b 50 603 210 971 85 799 b 99 208 26 474 39 328 b 421 3 163 81 276 3 b 672 140 532 3 621 39 z "},"h":{"ha":904,"x_min":0,"x_max":0,"o":"m 833 36 b 842 57 839 42 842 50 b 838 892 842 336 835 614 b 693 969 838 958 743 969 b 543 893 644 969 543 954 b 543 581 542 789 542 685 l 358 581 b 358 894 357 685 357 790 b 211 971 358 960 258 971 b 64 894 163 971 64 956 b 67 58 60 615 67 338 b 214 1 67 8 174 1 b 354 38 267 1 331 10 b 363 60 360 43 363 51 b 360 386 363 168 361 278 l 544 386 b 546 57 546 276 546 167 b 693 0 547 7 653 0 b 833 36 746 0 810 8 z "},"i":{"ha":425,"x_min":0,"x_max":0,"o":"m 354 38 b 363 60 360 43 363 51 b 358 894 363 338 356 615 b 211 971 358 960 258 971 b 64 894 163 971 64 956 b 67 58 60 615 67 338 b 214 1 67 8 174 1 b 354 38 267 1 331 10 z "},"j":{"ha":760,"x_min":0,"x_max":0,"o":"m 701 292 b 701 889 701 492 699 690 b 535 972 701 954 585 972 b 406 889 476 972 411 958 b 406 388 404 721 406 554 b 369 288 407 357 396 301 b 357 285 365 285 361 285 b 315 344 335 285 319 317 b 314 383 314 357 314 371 b 240 433 315 417 272 429 b 210 435 231 435 219 435 b 29 319 132 435 36 408 b 68 146 28 260 38 197 b 371 -3 126 40 256 -3 b 701 292 572 -3 701 85 z "},"k":{"ha":867,"x_min":0,"x_max":0,"o":"m 826 40 b 819 192 835 67 825 164 b 635 522 799 315 746 453 b 803 871 724 615 775 744 b 801 908 806 883 807 897 b 629 975 779 956 678 975 b 531 926 589 975 538 965 b 360 582 513 797 483 650 b 360 894 358 686 358 790 b 213 971 360 960 260 971 b 65 894 164 971 65 956 b 68 58 61 615 68 338 b 215 1 68 8 175 1 b 356 38 268 1 332 10 b 364 60 361 43 364 51 b 361 383 364 167 363 275 b 388 388 365 383 385 388 b 554 235 492 383 538 336 b 560 51 563 175 560 113 b 694 -12 560 -4 650 -12 b 826 40 732 -12 811 -1 z "},"l":{"ha":643,"x_min":0,"x_max":0,"o":"m 554 4 b 567 6 558 4 564 6 b 618 110 601 17 618 74 b 610 164 619 128 617 147 b 582 196 606 176 594 190 b 363 207 547 210 399 207 b 360 893 361 435 357 664 b 201 972 360 961 250 972 b 64 888 142 972 68 960 b 68 63 63 613 68 338 b 75 38 68 54 71 44 b 121 11 86 22 104 15 b 190 1 143 4 167 3 b 554 4 236 -1 508 4 z "},"m":{"ha":1254,"x_min":0,"x_max":0,"o":"m 363 65 b 358 513 363 214 358 363 b 522 124 414 383 475 256 b 625 81 535 90 593 81 b 733 125 658 81 719 90 b 888 507 788 251 843 376 l 888 65 b 1039 0 888 10 996 0 b 1183 63 1079 0 1183 11 b 1192 599 1183 128 1192 533 b 1190 833 1193 676 1194 756 b 1097 964 1190 907 1178 949 b 1038 971 1078 969 1058 971 b 854 903 981 971 889 954 b 632 549 778 786 708 665 b 390 926 594 606 439 881 b 222 972 350 963 274 972 b 76 926 164 972 106 960 b 63 875 64 913 63 893 b 67 63 61 604 67 333 b 124 11 67 39 101 18 b 214 -1 153 3 183 -1 b 363 65 256 -1 363 11 z "},"n":{"ha":956,"x_min":0,"x_max":0,"o":"m 794 4 b 893 58 832 8 890 22 l 893 81 b 888 911 893 183 886 808 b 742 975 851 953 796 975 b 594 896 693 975 600 954 b 604 483 590 842 604 538 b 393 857 522 600 465 733 b 210 972 344 942 308 972 b 63 888 158 972 65 954 b 67 63 61 613 67 338 b 213 0 67 11 175 0 b 363 61 251 0 363 10 b 363 457 363 193 364 325 b 601 47 400 403 572 106 b 694 1 617 13 660 4 b 794 4 728 -3 763 0 z "},"o":{"ha":849,"x_min":0,"x_max":0,"o":"m 453 1 b 808 504 746 8 808 265 b 417 972 804 746 679 972 b 89 733 260 972 149 872 b 39 478 54 654 38 564 b 453 1 43 213 174 1 z m 411 279 b 321 424 353 288 329 376 b 321 571 314 472 314 522 b 425 717 329 624 357 717 b 543 524 511 717 539 590 b 528 382 546 476 542 426 b 469 292 517 347 499 313 b 411 279 453 281 431 275 z "},"p":{"ha":756,"x_min":0,"x_max":0,"o":"m 363 61 b 360 346 363 96 361 311 b 647 464 464 357 574 386 b 631 876 757 583 751 769 b 493 947 592 910 543 932 b 213 972 403 975 307 978 b 122 956 182 971 151 967 b 63 888 88 944 67 924 b 67 63 61 613 67 338 b 213 0 67 11 175 0 b 363 61 251 0 363 10 z m 357 775 b 449 601 443 774 483 679 b 358 542 431 564 400 542 b 357 775 357 619 357 697 z "},"q":{"ha":871,"x_min":0,"x_max":0,"o":"m 836 35 b 831 56 838 43 836 49 b 739 164 801 93 771 129 b 808 504 796 265 810 388 b 417 972 804 746 679 972 b 89 733 260 972 149 872 b 39 478 54 654 38 564 b 444 1 42 222 174 1 b 572 21 489 1 532 7 b 633 -81 592 -12 611 -47 b 640 -87 635 -83 638 -86 b 661 -93 646 -92 653 -93 b 836 35 717 -93 831 -17 z m 385 290 b 326 596 310 342 306 507 b 424 717 336 644 365 717 b 474 700 442 717 460 710 b 532 399 546 647 554 486 b 497 435 522 413 513 429 b 475 439 490 438 482 439 b 440 432 463 439 451 436 b 376 357 410 419 371 389 b 425 278 379 342 417 290 b 385 290 411 278 396 282 z "},"r":{"ha":801,"x_min":0,"x_max":0,"o":"m 360 47 b 363 76 363 56 363 67 b 361 206 361 119 361 163 b 526 17 381 182 507 42 b 564 3 535 7 550 3 b 724 79 618 3 683 46 b 772 165 747 99 783 136 b 743 201 768 179 754 190 b 564 399 678 263 624 333 b 693 518 618 421 667 467 b 711 749 729 588 735 674 b 283 974 653 935 453 974 b 115 953 231 974 164 974 b 63 875 78 939 63 914 b 67 63 61 604 67 333 b 124 11 67 39 101 18 b 211 0 153 3 182 0 b 360 47 253 0 342 11 z m 357 775 b 426 750 382 775 408 767 b 454 701 439 736 449 719 b 358 542 476 628 436 543 b 357 775 357 619 357 697 z "},"s":{"ha":786,"x_min":0,"x_max":0,"o":"m 747 219 b 725 379 757 272 749 331 b 640 483 707 419 675 454 b 499 586 596 521 547 553 b 392 682 474 603 400 654 b 414 717 386 699 397 715 b 501 664 439 717 483 679 b 608 608 532 639 568 608 b 718 740 667 608 708 683 b 708 810 722 764 724 792 b 354 974 631 910 476 974 b 90 804 235 974 129 921 b 93 649 75 754 78 697 b 218 475 114 581 161 517 b 339 401 257 447 300 426 b 404 322 365 385 413 353 b 386 299 403 313 394 304 b 346 290 375 293 363 290 b 161 347 288 290 203 326 b 142 351 154 350 149 351 b 67 278 110 351 83 313 b 44 90 43 232 15 132 b 157 39 60 69 132 46 b 400 3 235 15 318 3 b 747 219 550 3 719 51 z "},"t":{"ha":794,"x_min":0,"x_max":0,"o":"m 543 38 b 551 60 549 43 551 51 b 547 783 551 301 546 542 b 715 785 603 785 660 785 b 768 854 746 785 763 824 b 750 960 774 889 771 931 b 715 979 742 971 728 979 b 81 979 504 979 292 974 b 26 901 46 979 29 936 b 65 788 22 865 31 803 b 82 785 71 786 76 785 b 251 782 139 783 194 782 b 257 58 251 540 257 300 b 403 1 257 7 363 1 b 543 38 456 1 519 10 z "},"u":{"ha":879,"x_min":0,"x_max":0,"o":"m 796 310 b 814 910 849 503 833 710 b 665 975 814 965 703 975 b 544 939 629 975 569 971 b 536 907 538 931 535 918 b 532 582 544 799 543 690 b 429 338 526 529 504 338 b 347 447 372 338 356 403 b 342 606 339 499 340 553 b 357 921 344 711 356 815 b 203 976 357 971 239 976 b 86 957 164 976 124 972 b 53 921 71 951 53 938 b 58 469 51 771 44 619 b 429 -18 78 229 147 -18 b 796 310 640 -18 746 125 z "},"v":{"ha":876,"x_min":0,"x_max":0,"o":"m 639 71 b 849 903 714 347 792 622 b 847 918 850 908 849 913 b 674 971 828 954 714 971 b 579 929 643 971 588 965 b 506 557 547 806 531 681 b 432 282 488 464 464 371 b 374 628 414 397 396 513 b 303 939 354 732 329 835 b 213 969 296 965 238 969 b 90 949 171 969 129 963 b 29 893 64 939 25 921 b 268 61 67 631 175 307 b 446 -3 289 7 399 -3 b 639 71 503 -3 624 11 z "},"w":{"ha":1336,"x_min":0,"x_max":0,"o":"m 1103 81 b 1308 897 1175 351 1253 622 b 1243 951 1315 929 1275 944 b 1126 969 1206 960 1165 969 b 1036 917 1085 969 1047 961 b 892 278 986 704 967 483 b 814 707 869 422 847 565 b 675 753 807 744 707 753 b 528 690 633 753 540 742 b 429 282 496 554 476 414 b 301 932 394 500 357 718 b 289 953 300 940 294 947 b 194 969 271 965 232 969 b 43 924 147 969 75 964 b 32 858 29 906 29 881 b 265 61 76 585 164 318 b 446 -3 288 7 389 -3 b 638 72 511 -1 621 10 b 674 207 649 118 661 163 b 733 49 682 183 721 69 b 924 -7 763 -1 868 -7 b 1103 81 986 -7 1085 6 z "},"x":{"ha":832,"x_min":0,"x_max":0,"o":"m 753 97 b 794 188 778 119 814 158 b 596 486 731 289 663 388 b 792 786 663 585 729 685 b 733 913 818 829 774 882 b 614 968 699 939 658 963 b 565 964 599 971 581 971 b 543 944 556 960 549 953 b 417 749 503 878 460 814 b 290 944 374 814 331 878 b 238 969 279 963 258 969 b 35 824 168 969 46 890 b 42 786 32 810 35 799 b 239 486 104 685 171 585 b 39 188 171 388 103 289 b 88 92 19 156 58 115 b 253 13 125 60 203 13 b 281 21 264 13 274 15 b 288 29 283 22 286 26 b 417 225 329 94 374 160 b 546 29 461 160 504 94 b 582 14 553 18 567 14 b 753 97 638 14 715 63 z "},"y":{"ha":967,"x_min":0,"x_max":0,"o":"m 653 57 b 667 94 661 67 665 81 b 654 378 671 132 654 340 b 796 614 697 458 747 536 b 943 878 847 700 897 788 b 921 918 951 893 936 910 b 701 967 868 951 767 967 b 625 940 671 967 633 964 b 565 788 604 890 588 838 b 501 678 547 749 526 713 b 411 838 463 725 438 782 b 351 947 393 875 374 911 b 301 967 339 964 322 967 b 88 901 236 967 132 925 b 22 842 67 890 24 865 b 25 832 22 839 24 835 b 338 372 119 672 229 522 l 338 100 b 504 0 338 21 443 0 b 653 57 563 0 624 17 z "},"z":{"ha":875,"x_min":0,"x_max":0,"o":"m 797 6 b 817 15 804 7 811 11 b 839 160 846 43 850 121 b 818 196 835 172 829 188 b 793 200 811 200 801 201 b 650 194 746 194 699 194 b 404 200 568 196 486 200 b 588 464 472 283 531 374 b 774 750 649 560 706 658 b 801 811 786 768 797 789 b 672 969 814 889 750 969 b 132 975 493 969 313 975 b 89 946 114 975 97 961 b 74 865 76 922 72 893 b 132 781 76 828 93 781 l 431 781 b 236 469 363 678 301 572 b 72 249 186 393 131 319 b 32 126 44 217 25 168 b 224 6 46 35 146 8 b 586 3 268 6 542 3 b 797 6 615 3 768 1 z "},"~":{"ha":847,"x_min":0,"x_max":0,"o":"m 753 350 b 800 576 772 392 808 531 b 788 622 797 592 793 607 b 693 693 771 663 733 693 b 594 597 643 693 603 643 b 571 500 592 583 576 513 b 426 599 535 499 456 576 b 274 657 383 632 328 657 b 57 467 160 657 92 565 b 54 349 44 429 44 386 b 158 251 68 296 110 251 b 258 346 208 251 249 300 b 264 369 258 351 260 367 b 289 368 269 374 283 371 b 408 278 313 361 389 293 b 571 214 458 242 508 214 b 753 350 660 214 717 275 z "}," ":{"ha":347,"x_min":0,"x_max":0,"o":""},"¡":{"ha":399,"x_min":0,"x_max":0,"o":"m 324 494 b 339 572 338 517 342 546 b 278 668 336 600 300 653 b 194 694 249 685 229 694 b 71 536 111 694 38 619 b 110 476 75 524 101 485 b 208 435 142 450 167 435 b 324 494 254 435 297 457 z m 361 -221 b 317 278 353 -54 317 111 b 188 332 317 325 224 332 b 133 328 169 332 151 331 b 78 290 108 322 75 315 b 69 81 86 221 78 150 b 18 -211 57 -18 36 -114 b 25 -239 17 -222 19 -231 b 203 -289 51 -279 154 -289 b 361 -221 249 -289 363 -279 z "},"¢":{"ha":619,"x_min":0,"x_max":0,"o":"m 393 106 b 403 182 411 124 414 160 b 403 199 401 186 401 199 b 539 268 453 207 508 228 b 565 364 558 294 567 331 b 472 401 564 394 497 401 b 379 361 443 401 381 396 b 338 308 379 333 369 308 b 261 399 301 308 272 356 b 274 606 244 465 247 542 b 339 674 285 631 307 674 b 367 654 351 674 363 668 b 369 633 369 647 369 640 b 458 597 369 603 436 597 b 549 624 482 597 535 603 b 551 657 553 631 553 651 b 378 797 542 750 463 789 b 381 846 379 814 376 831 b 358 911 388 868 375 894 b 317 928 346 924 332 928 b 253 894 293 928 268 915 b 242 783 239 872 235 808 b 99 668 183 764 131 719 b 54 443 60 603 44 518 b 261 203 71 326 146 232 b 268 144 257 183 263 163 b 342 83 278 108 303 83 b 393 106 364 83 378 90 z "},"£":{"ha":864,"x_min":0,"x_max":0,"o":"m 631 18 b 764 74 657 25 744 56 b 799 129 781 88 792 108 b 807 243 811 165 813 206 b 731 339 800 288 775 343 b 706 331 722 338 714 335 b 436 276 622 294 529 276 b 358 281 410 276 385 278 b 408 407 386 317 401 363 b 486 408 421 408 475 411 b 519 543 572 393 603 518 b 472 550 504 549 489 550 b 414 546 453 550 433 547 b 418 649 414 581 413 615 b 475 713 421 681 440 713 b 521 688 492 713 510 704 b 560 596 540 661 547 628 b 604 554 568 575 581 554 b 742 676 658 554 724 632 b 736 775 754 707 749 744 b 483 957 697 882 599 957 b 249 763 363 957 285 869 b 217 535 226 689 224 611 b 169 532 200 533 185 533 b 128 508 153 531 139 519 b 144 404 97 478 110 429 b 192 394 158 394 176 393 b 146 294 182 358 167 325 b 78 210 125 264 100 238 b 44 154 64 193 51 175 b 124 29 26 97 65 39 b 446 -3 231 13 338 -3 b 631 18 508 -3 571 3 z "},"¥":{"ha":993,"x_min":0,"x_max":0,"o":"m 664 57 b 676 167 686 86 678 131 b 764 168 706 168 735 171 b 829 207 792 168 818 186 b 793 315 851 247 836 299 b 746 319 785 318 767 319 b 668 317 715 319 681 318 b 665 347 667 326 667 338 b 769 350 700 350 735 353 b 815 367 785 350 803 356 b 799 503 861 403 851 482 b 742 507 781 510 760 507 b 954 878 815 629 890 751 b 932 918 963 893 947 910 b 713 967 879 951 778 967 b 636 940 682 967 644 964 b 576 788 615 890 599 838 b 513 678 558 749 538 713 b 422 838 474 725 449 782 b 363 947 404 875 385 911 b 313 967 350 964 333 967 b 99 901 247 967 143 925 b 33 842 78 890 35 865 b 36 832 33 839 35 835 b 253 506 103 719 178 611 b 183 414 213 501 183 456 b 256 333 183 372 214 338 b 349 331 286 329 318 331 l 349 300 b 301 299 332 299 317 299 b 257 317 289 310 272 315 b 213 300 240 319 225 310 b 239 154 157 258 171 171 b 349 150 256 149 332 149 b 350 82 349 139 349 92 b 515 0 364 18 461 0 b 664 57 574 0 635 17 z "},"¨":{"ha":447,"x_min":0,"x_max":0,"o":"m 176 733 b 108 804 181 771 146 800 b 72 794 96 804 83 800 b 74 667 15 768 17 692 b 106 660 83 663 94 660 b 176 733 154 660 172 692 z m 363 646 b 411 749 407 658 431 707 b 350 788 399 775 375 788 b 286 753 326 788 301 775 b 276 701 276 739 275 719 b 363 646 281 661 324 635 z "},"«":{"ha":893,"x_min":0,"x_max":0,"o":"m 796 299 b 839 413 843 310 867 374 b 799 442 831 426 814 436 b 692 540 779 447 711 531 b 739 593 711 554 726 574 b 781 757 763 631 800 717 b 749 775 774 771 763 775 b 676 747 726 775 699 761 b 481 611 647 731 506 635 b 432 535 457 592 438 564 b 461 454 425 504 436 474 b 533 413 483 438 508 425 b 743 310 561 397 717 328 b 796 299 758 300 778 294 z m 407 274 b 450 389 453 285 476 349 b 410 417 440 403 425 413 b 303 515 389 424 321 506 b 349 568 321 529 336 549 b 390 732 372 606 410 692 b 358 750 383 746 372 750 b 288 724 336 750 310 736 b 90 588 258 706 115 610 b 42 511 68 567 49 540 b 72 429 36 479 47 449 b 143 388 93 413 118 400 b 354 285 172 374 328 303 b 407 274 368 275 389 269 z "},"­":{"ha":0,"x_min":0,"x_max":0,"o":""},"¯":{"ha":463,"x_min":0,"x_max":0,"o":"m 375 765 b 411 785 389 767 401 775 b 350 903 461 833 418 910 b 200 889 300 896 250 889 b 125 901 176 889 147 889 b 101 906 118 904 110 906 b 81 903 94 906 88 904 b 65 776 22 886 13 808 b 200 751 103 753 156 751 b 375 765 258 751 317 760 z "},"±":{"ha":781,"x_min":0,"x_max":0,"o":"m 686 -14 b 710 94 704 19 714 58 b 672 175 706 124 693 154 b 582 211 650 199 614 213 b 207 200 457 211 332 193 b 153 206 189 201 171 206 b 135 204 146 206 140 206 b 54 81 85 193 51 132 b 76 1 57 53 63 25 b 169 -44 103 -35 126 -42 b 276 -50 204 -49 240 -50 b 556 -37 368 -50 463 -39 b 610 -58 571 -51 590 -58 b 686 -14 640 -58 669 -43 z m 549 361 b 550 469 554 397 551 433 b 571 468 556 469 567 471 b 624 447 586 454 606 447 b 701 493 654 447 685 464 b 724 601 719 525 729 565 b 626 715 715 656 683 706 b 544 717 600 721 572 718 b 549 771 546 735 546 753 b 554 833 551 792 558 813 b 419 917 542 885 474 917 b 269 835 365 917 281 899 b 256 706 261 792 257 749 b 167 713 226 706 196 710 b 92 667 142 715 103 689 b 71 610 82 650 74 631 b 92 508 65 576 72 538 b 133 472 101 493 117 479 b 264 457 153 463 240 457 l 264 419 b 236 365 249 407 236 386 b 269 301 235 342 249 315 b 396 260 304 276 351 260 b 549 361 456 260 538 294 z "},"´":{"ha":299,"x_min":0,"x_max":0,"o":"m 138 688 b 178 729 154 697 164 715 b 200 747 181 732 194 746 b 221 753 201 749 218 751 b 208 886 288 776 279 874 b 194 888 204 888 200 888 b 43 783 131 888 78 832 b 33 742 35 771 32 756 b 101 678 36 704 68 678 b 138 688 114 678 126 681 z "},"¸":{"ha":276,"x_min":0,"x_max":0,"o":"m 299 -261 b 346 -190 322 -246 339 -218 b 222 -17 361 -118 292 -43 b 188 -7 211 -12 200 -10 b 199 7 186 -7 197 7 b 243 92 235 17 253 56 b 172 142 235 124 204 142 b 144 138 163 142 153 140 b 96 101 125 132 108 117 b 28 6 85 88 36 22 b 17 -56 19 -12 13 -35 b 60 -117 21 -81 38 -104 b 199 -162 103 -139 161 -131 b 86 -203 163 -181 122 -186 b 53 -281 60 -215 46 -253 b 122 -332 61 -314 90 -332 b 299 -261 163 -332 268 -283 z "},"»":{"ha":892,"x_min":0,"x_max":0,"o":"m 150 310 b 186 329 163 317 174 324 b 404 435 258 365 335 394 b 436 457 415 442 426 449 b 429 597 479 493 467 556 b 244 731 406 622 274 711 b 146 774 221 746 176 774 b 108 733 122 774 108 757 b 201 540 104 678 157 572 b 94 442 183 531 115 447 b 57 417 81 436 67 428 b 94 300 28 379 47 314 b 111 297 100 297 106 297 b 150 310 125 297 139 301 z m 540 285 b 576 306 551 293 564 299 b 793 411 647 342 724 369 b 825 432 804 417 815 424 b 818 572 868 468 856 531 b 633 706 794 599 663 688 b 535 749 610 721 567 749 b 515 744 528 749 521 747 b 497 710 504 739 499 722 b 592 515 494 654 547 549 b 485 417 574 506 504 424 b 447 392 471 413 456 404 b 483 275 417 354 438 289 b 499 272 489 274 493 272 b 540 285 513 272 528 278 z "},"¿":{"ha":607,"x_min":0,"x_max":0,"o":"m 417 426 b 501 501 460 443 476 463 b 517 582 515 525 522 554 b 388 679 506 642 446 679 b 243 560 314 679 264 626 b 263 474 235 532 244 497 b 372 419 290 439 331 419 b 417 426 388 419 401 422 z m 596 -164 b 606 -89 607 -142 610 -114 b 485 53 597 -39 543 53 b 440 33 469 53 451 44 b 299 -57 411 4 343 -57 b 281 -42 289 -57 281 -53 b 300 6 279 -24 290 -8 b 403 121 328 49 365 85 b 471 199 428 144 454 168 b 471 303 486 229 490 274 b 388 340 454 331 418 340 b 290 269 340 340 292 315 b 194 171 290 218 235 190 b 83 108 156 151 117 135 b 42 57 67 94 51 76 b 186 -301 -32 -83 33 -260 b 272 -312 214 -308 243 -312 b 596 -164 371 -312 546 -260 z "},"À":{"ha":867,"x_min":0,"x_max":0,"o":"m 565 1069 b 531 1175 592 1107 575 1161 b 426 1210 518 1179 439 1207 b 364 1190 404 1215 379 1206 b 368 1089 335 1163 338 1115 b 496 1040 386 1074 472 1047 b 565 1069 519 1035 551 1049 z m 788 18 b 843 67 813 26 849 42 b 633 900 788 347 708 624 b 529 964 622 939 564 957 b 442 971 500 968 471 971 b 264 910 392 971 282 961 b 101 415 201 747 147 583 b 24 74 69 303 40 189 b 90 18 19 44 63 28 b 213 1 117 10 168 1 b 286 15 243 1 269 4 b 301 40 293 21 297 32 b 328 185 317 88 322 136 b 542 188 356 183 515 188 b 572 43 544 169 568 61 b 667 -3 582 7 624 -3 b 788 18 707 -3 750 3 z m 432 736 b 506 381 474 622 486 500 b 356 378 456 381 406 379 b 432 736 374 499 400 618 z "},"Á":{"ha":867,"x_min":0,"x_max":0,"o":"m 426 1032 b 540 1079 464 1049 500 1069 b 582 1121 558 1085 574 1103 b 515 1215 601 1163 563 1218 b 369 1157 464 1210 417 1181 b 333 1097 349 1147 335 1121 b 401 1026 331 1058 365 1026 b 426 1032 410 1026 418 1028 z m 788 18 b 843 67 813 26 849 42 b 633 900 788 347 708 624 b 529 964 622 939 564 957 b 442 971 500 968 471 971 b 264 910 392 971 282 961 b 101 415 201 747 147 583 b 24 74 69 303 40 189 b 90 18 19 44 63 28 b 213 1 117 10 168 1 b 286 15 243 1 269 4 b 301 40 293 21 297 32 b 328 185 317 88 322 136 b 542 188 356 183 515 188 b 572 43 544 169 568 61 b 667 -3 582 7 624 -3 b 788 18 707 -3 750 3 z m 432 736 b 506 381 474 622 486 500 b 356 378 456 381 406 379 b 432 736 374 499 400 618 z "},"Â":{"ha":867,"x_min":0,"x_max":0,"o":"m 361 1031 b 464 1096 399 1047 426 1083 b 535 1047 475 1092 525 1054 b 568 1038 544 1040 556 1038 b 640 1107 608 1038 638 1068 b 624 1151 642 1122 633 1139 b 560 1200 617 1163 571 1193 b 465 1236 532 1219 499 1235 b 385 1213 438 1236 408 1226 b 290 1149 372 1204 303 1157 b 267 1114 279 1140 271 1126 b 335 1025 256 1067 292 1025 b 361 1031 343 1025 353 1026 z m 788 18 b 843 67 813 26 849 42 b 633 900 788 347 708 624 b 529 964 622 939 564 957 b 442 971 500 968 471 971 b 264 910 392 971 282 961 b 101 415 201 747 147 583 b 24 74 69 303 40 189 b 90 18 19 44 63 28 b 213 1 117 10 168 1 b 286 15 243 1 269 4 b 301 40 293 21 297 32 b 328 185 317 88 322 136 b 542 188 356 183 515 188 b 572 43 544 169 568 61 b 667 -3 582 7 624 -3 b 788 18 707 -3 750 3 z m 432 736 b 506 381 474 622 486 500 b 356 378 456 381 406 379 b 432 736 374 499 400 618 z "},"Ã":{"ha":867,"x_min":0,"x_max":0,"o":"m 592 1113 b 600 1161 596 1129 599 1144 b 588 1201 601 1175 596 1190 b 531 1232 574 1222 551 1232 b 468 1193 506 1232 481 1218 b 376 1236 440 1211 410 1233 b 313 1214 354 1238 331 1226 b 240 1132 296 1201 247 1151 b 307 1039 224 1083 261 1039 b 338 1046 317 1039 328 1042 b 371 1075 350 1053 364 1063 b 381 1085 374 1079 376 1089 b 471 1039 408 1067 438 1046 b 592 1113 522 1029 579 1063 z m 788 18 b 843 67 813 26 849 42 b 633 900 788 347 708 624 b 529 964 622 939 564 957 b 442 971 500 968 471 971 b 264 910 392 971 282 961 b 101 415 201 747 147 583 b 24 74 69 303 40 189 b 90 18 19 44 63 28 b 213 1 117 10 168 1 b 286 15 243 1 269 4 b 301 40 293 21 297 32 b 328 185 317 88 322 136 b 542 188 356 183 515 188 b 572 43 544 169 568 61 b 667 -3 582 7 624 -3 b 788 18 707 -3 750 3 z m 432 736 b 506 381 474 622 486 500 b 356 378 456 381 406 379 b 432 736 374 499 400 618 z "},"Ä":{"ha":867,"x_min":0,"x_max":0,"o":"m 344 1067 b 392 1132 372 1076 389 1104 b 375 1176 393 1147 385 1164 b 346 1197 368 1186 357 1193 b 324 1201 339 1200 331 1201 b 296 1199 314 1201 304 1200 b 307 1058 203 1183 211 1058 b 344 1067 319 1058 332 1064 z m 601 1094 b 532 1197 625 1144 588 1201 b 494 1072 469 1192 450 1117 b 543 1056 506 1061 528 1056 b 601 1094 568 1056 592 1074 z m 788 18 b 843 67 813 26 849 42 b 633 900 788 347 708 624 b 529 964 622 939 564 957 b 442 971 500 968 471 971 b 264 910 392 971 282 961 b 101 415 201 747 147 583 b 24 74 69 303 40 189 b 90 18 19 44 63 28 b 213 1 117 10 168 1 b 286 15 243 1 269 4 b 301 40 293 21 297 32 b 328 185 317 88 322 136 b 542 188 356 183 515 188 b 572 43 544 169 568 61 b 667 -3 582 7 624 -3 b 788 18 707 -3 750 3 z m 432 736 b 506 381 474 622 486 500 b 356 378 456 381 406 379 b 432 736 374 499 400 618 z "},"Å":{"ha":867,"x_min":0,"x_max":0,"o":"m 788 18 b 843 67 813 26 849 42 b 633 900 788 347 708 624 b 585 946 628 922 606 938 b 653 1010 611 963 636 983 b 667 1090 667 1033 672 1064 b 619 1165 660 1119 642 1146 b 525 1225 593 1192 558 1210 b 476 1232 510 1232 493 1235 b 442 1215 464 1229 453 1222 b 396 1229 435 1221 404 1229 b 314 1214 368 1232 336 1229 b 271 1156 294 1200 276 1179 b 271 1018 258 1111 258 1064 b 308 949 276 993 289 967 b 264 910 290 940 271 928 b 101 415 201 747 147 583 b 24 74 69 303 40 189 b 90 18 19 44 63 28 b 213 1 117 10 168 1 b 286 15 243 1 269 4 b 301 40 293 21 297 32 b 328 185 317 88 322 136 b 542 188 356 183 515 188 b 572 43 544 169 568 61 b 667 -3 582 7 624 -3 b 788 18 707 -3 750 3 z m 407 1047 b 400 1088 401 1060 400 1074 b 447 1101 417 1086 435 1092 b 485 1092 458 1094 472 1094 b 519 1069 492 1090 514 1074 b 419 1043 490 1051 454 1043 b 407 1047 415 1043 408 1043 z m 432 736 b 506 381 474 622 486 500 b 356 378 456 381 406 379 b 432 736 374 499 400 618 z "},"Æ":{"ha":1133,"x_min":0,"x_max":0,"o":"m 1021 -1 b 1044 4 1029 -1 1038 0 b 1079 147 1086 29 1094 101 b 1049 189 1074 164 1064 181 b 831 200 1014 208 871 200 b 829 349 829 250 829 300 b 976 353 850 349 956 347 b 1015 386 993 356 1007 371 b 1025 493 1031 418 1035 458 b 992 543 1021 513 1010 533 b 826 554 965 556 857 554 l 826 767 b 940 761 864 765 903 761 b 1061 793 976 761 1033 765 b 1076 922 1088 818 1088 888 b 1063 949 1074 932 1069 940 b 940 971 1044 971 969 969 b 750 976 876 972 813 976 b 113 511 389 976 218 843 b 29 58 67 364 47 210 b 39 43 29 54 36 46 b 182 6 64 17 128 6 b 283 29 208 6 264 7 b 293 56 290 36 293 46 b 314 304 293 139 300 222 b 535 313 388 306 461 308 b 536 57 535 228 536 142 b 576 10 536 32 553 15 b 789 -6 610 -3 699 -6 b 1021 -1 885 -6 983 -3 z m 531 750 b 532 750 529 749 531 750 l 532 507 b 356 500 474 504 415 500 b 531 750 381 581 446 735 z "},"Ç":{"ha":771,"x_min":0,"x_max":0,"o":"m 604 -185 b 524 -53 619 -128 579 -71 b 406 -33 486 -40 446 -36 b 429 3 414 -22 422 -10 b 704 143 536 3 657 39 b 728 268 722 181 729 225 b 713 303 728 281 722 294 b 607 333 688 328 640 333 b 488 296 561 333 507 324 b 482 272 483 289 482 281 b 457 196 482 247 478 214 b 425 188 449 190 436 188 b 322 342 365 188 332 296 b 343 669 300 449 306 567 b 428 771 357 708 388 771 b 468 710 461 771 468 736 b 482 676 468 697 474 685 b 590 650 503 658 549 650 b 660 658 617 650 642 653 b 711 707 686 668 707 678 b 676 853 713 757 703 810 b 432 971 628 933 529 971 b 56 603 215 971 90 799 b 92 235 33 482 43 349 b 283 31 131 146 193 69 b 232 -54 264 4 246 -24 b 304 -167 208 -106 249 -160 b 454 -178 354 -172 406 -171 b 401 -232 439 -197 422 -217 b 332 -283 368 -232 340 -249 b 410 -372 318 -333 361 -372 b 604 -185 485 -372 588 -253 z "},"È":{"ha":681,"x_min":0,"x_max":0,"o":"m 428 1050 b 428 1172 476 1072 475 1150 b 340 1214 417 1176 351 1210 b 319 1219 335 1218 326 1219 b 297 1215 313 1219 304 1218 b 281 1089 238 1200 229 1122 b 390 1042 299 1078 368 1042 b 428 1050 404 1042 417 1046 z m 571 4 b 582 6 575 4 579 6 b 633 110 617 17 633 74 b 625 164 635 128 632 147 b 597 196 621 176 610 190 b 378 207 563 210 414 207 b 376 356 378 256 378 306 b 521 358 396 356 503 357 b 568 424 547 360 563 399 b 542 547 575 460 574 528 b 375 560 515 565 407 560 b 374 772 375 631 374 701 b 496 768 414 772 456 768 b 628 839 556 768 614 772 b 607 960 632 869 629 938 b 507 975 590 974 529 975 b 117 947 433 979 182 983 b 88 919 104 940 93 932 b 79 879 81 907 81 893 b 83 63 78 607 83 335 b 90 38 83 54 86 44 b 136 11 101 22 119 15 b 206 1 158 4 182 3 b 571 4 251 -1 524 4 z "},"É":{"ha":681,"x_min":0,"x_max":0,"o":"m 510 1094 b 468 1218 561 1139 525 1218 b 440 1213 458 1218 450 1217 b 344 1178 408 1200 376 1189 b 363 1042 261 1150 289 1042 b 510 1094 392 1042 492 1081 z m 571 4 b 582 6 575 4 579 6 b 633 110 617 17 633 74 b 625 164 635 128 632 147 b 597 196 621 176 610 190 b 378 207 563 210 414 207 b 376 356 378 256 378 306 b 521 358 396 356 503 357 b 568 424 547 360 563 399 b 542 547 575 460 574 528 b 375 560 515 565 407 560 b 374 772 375 631 374 701 b 496 768 414 772 456 768 b 628 839 556 768 614 772 b 607 960 632 869 629 938 b 507 975 590 974 529 975 b 117 947 433 979 182 983 b 88 919 104 940 93 932 b 79 879 81 907 81 893 b 83 63 78 607 83 335 b 90 38 83 54 86 44 b 136 11 101 22 119 15 b 206 1 158 4 182 3 b 571 4 251 -1 524 4 z "},"Ê":{"ha":681,"x_min":0,"x_max":0,"o":"m 510 1086 b 501 1121 511 1099 507 1110 b 447 1185 496 1133 457 1175 b 356 1225 422 1207 390 1225 b 290 1208 333 1225 311 1218 b 208 1154 275 1201 219 1167 b 192 1094 196 1139 188 1115 b 253 1038 197 1063 222 1044 b 319 1060 276 1031 304 1042 b 351 1083 328 1071 340 1078 b 396 1035 368 1069 379 1050 b 438 1018 407 1024 422 1018 b 510 1086 479 1018 506 1046 z m 571 4 b 582 6 575 4 579 6 b 633 110 617 17 633 74 b 625 164 635 128 632 147 b 597 196 621 176 610 190 b 378 207 563 210 414 207 b 376 356 378 256 378 306 b 521 358 396 356 503 357 b 568 424 547 360 563 399 b 542 547 575 460 574 528 b 375 560 515 565 407 560 b 374 772 375 631 374 701 b 496 768 414 772 456 768 b 628 839 556 768 614 772 b 607 960 632 869 629 938 b 507 975 590 974 529 975 b 117 947 433 979 182 983 b 88 919 104 940 93 932 b 79 879 81 907 81 893 b 83 63 78 607 83 335 b 90 38 83 54 86 44 b 136 11 101 22 119 15 b 206 1 158 4 182 3 b 571 4 251 -1 524 4 z "},"Ë":{"ha":681,"x_min":0,"x_max":0,"o":"m 332 1092 b 328 1210 374 1122 371 1183 b 278 1219 313 1218 296 1219 b 217 1115 224 1219 190 1163 b 288 1079 231 1092 258 1079 b 332 1092 303 1079 319 1083 z m 558 1132 b 551 1178 561 1147 558 1164 b 492 1214 542 1197 514 1214 b 428 1178 464 1214 444 1201 b 425 1111 415 1160 417 1132 b 488 1072 438 1085 463 1072 b 558 1132 519 1072 551 1093 z m 571 4 b 582 6 575 4 579 6 b 633 110 617 17 633 74 b 625 164 635 128 632 147 b 597 196 621 176 610 190 b 378 207 563 210 414 207 b 376 356 378 256 378 306 b 521 358 396 356 503 357 b 568 424 547 360 563 399 b 542 547 575 460 574 528 b 375 560 515 565 407 560 b 374 772 375 631 374 701 b 496 768 414 772 456 768 b 628 839 556 768 614 772 b 607 960 632 869 629 938 b 507 975 590 974 529 975 b 117 947 433 979 182 983 b 88 919 104 940 93 932 b 79 879 81 907 81 893 b 83 63 78 607 83 335 b 90 38 83 54 86 44 b 136 11 101 22 119 15 b 206 1 158 4 182 3 b 571 4 251 -1 524 4 z "},"Ì":{"ha":458,"x_min":0,"x_max":0,"o":"m 285 1175 b 249 1188 274 1182 261 1183 b 143 1236 211 1197 174 1214 b 100 1246 131 1244 114 1247 b 67 1121 36 1240 15 1158 b 164 1069 96 1099 131 1083 b 239 1046 175 1064 226 1049 b 285 1175 315 1033 353 1136 z m 371 38 b 379 60 375 43 379 51 b 375 894 379 338 371 615 b 226 971 375 960 275 971 b 81 894 178 971 81 954 b 83 58 76 615 83 338 b 231 1 83 8 190 1 b 371 38 283 1 347 10 z "},"Í":{"ha":456,"x_min":0,"x_max":0,"o":"m 226 1038 b 313 1096 242 1050 293 1092 b 336 1097 315 1096 333 1097 b 390 1189 379 1101 401 1147 b 315 1235 382 1222 350 1235 b 128 1135 250 1235 174 1181 b 113 1096 118 1125 113 1110 b 182 1019 108 1051 144 1019 b 226 1038 197 1019 213 1025 z m 371 38 b 379 60 376 43 379 51 b 375 894 379 338 372 615 b 228 971 375 960 275 971 b 81 894 179 971 81 956 b 83 58 76 615 83 338 b 231 1 83 8 190 1 b 371 38 283 1 347 10 z "},"Î":{"ha":460,"x_min":0,"x_max":0,"o":"m 92 1014 b 233 1096 139 1042 183 1076 b 285 1043 253 1081 265 1058 b 329 1026 299 1032 314 1026 b 389 1131 376 1026 418 1079 b 331 1196 382 1143 342 1186 b 238 1236 307 1218 272 1236 b 172 1221 217 1236 192 1231 b 35 1142 124 1200 81 1168 b 10 1133 32 1140 13 1135 b -25 1086 -8 1125 -19 1104 b -15 1035 -29 1069 -24 1050 b 43 1000 -4 1011 18 1000 b 92 1014 60 1000 76 1006 z m 372 38 b 381 60 378 43 381 51 b 376 894 381 338 374 615 b 229 971 376 960 278 971 b 82 894 181 971 82 956 b 86 58 78 615 86 338 b 232 1 86 7 192 1 b 372 38 285 1 349 10 z "},"Ï":{"ha":457,"x_min":0,"x_max":0,"o":"m 399 1081 b 417 1132 413 1093 415 1114 b 344 1201 421 1172 385 1201 b 296 1178 324 1201 310 1192 b 278 1126 282 1165 279 1144 b 293 1082 276 1111 283 1094 b 343 1056 306 1064 324 1056 b 399 1081 363 1056 383 1065 z m 157 1160 b 96 1189 140 1179 118 1189 b 46 1168 78 1189 60 1182 b 82 1049 6 1128 28 1064 b 103 1046 89 1047 96 1046 b 157 1160 160 1046 197 1113 z m 371 38 b 379 60 375 43 379 51 b 375 894 379 338 371 615 b 226 971 375 960 275 971 b 79 894 178 971 81 954 b 83 58 76 615 83 338 b 231 1 83 8 190 1 b 371 38 283 1 347 10 z "},"Ð":{"ha":882,"x_min":0,"x_max":0,"o":"m 300 -12 b 488 0 363 -12 426 -12 b 792 268 624 25 736 147 b 828 631 842 378 857 513 b 443 969 782 819 633 949 b 364 974 417 972 390 974 b 225 965 318 974 271 969 b 186 951 211 964 197 960 b 160 915 175 942 167 929 b 144 836 150 890 146 863 b 138 561 142 800 138 596 b 125 561 138 557 129 560 b 101 567 118 565 110 567 b 81 563 94 567 88 565 b 96 381 0 535 13 393 b 138 378 110 378 124 378 b 143 93 139 283 140 188 b 206 4 143 51 167 19 b 300 -12 235 -10 268 -12 z m 393 394 b 443 390 410 394 428 396 b 492 400 458 385 478 390 b 458 574 551 446 531 557 b 393 576 436 578 414 576 l 393 743 b 465 729 417 744 443 740 b 571 553 529 699 563 618 b 535 308 585 471 575 381 b 393 215 506 253 457 215 z "},"Ñ":{"ha":988,"x_min":0,"x_max":0,"o":"m 811 4 b 910 58 849 8 907 22 l 910 81 b 904 911 910 183 903 808 b 758 975 868 953 813 975 b 611 896 710 975 617 954 b 621 483 607 842 621 538 b 410 857 539 600 482 733 b 226 972 361 942 325 972 b 79 888 175 972 82 954 b 83 63 78 613 83 338 b 229 0 83 11 192 0 b 379 61 268 0 379 10 b 379 457 379 193 381 325 b 618 47 417 403 589 106 b 711 1 633 13 676 4 b 811 4 744 -3 779 0 z m 411 1089 b 526 1046 449 1074 486 1053 b 604 1058 553 1042 582 1046 b 665 1151 636 1076 663 1114 b 650 1196 667 1167 658 1183 b 621 1217 643 1206 631 1211 b 599 1221 614 1219 606 1221 b 572 1218 589 1221 581 1219 b 536 1188 557 1214 544 1200 b 372 1239 482 1206 429 1243 b 274 1139 322 1232 285 1186 b 344 1043 261 1090 300 1043 b 411 1089 374 1043 401 1063 z "},"Ò":{"ha":863,"x_min":0,"x_max":0,"o":"m 522 1056 b 528 1179 572 1079 576 1150 b 382 1218 522 1182 392 1218 b 311 1150 343 1222 314 1189 b 326 1106 310 1135 318 1118 b 492 1049 343 1082 460 1049 b 522 1056 503 1049 513 1051 z m 458 1 b 814 504 751 8 814 265 b 422 972 810 746 685 972 b 94 733 265 972 154 872 b 44 478 60 654 43 564 b 458 1 49 213 179 1 z m 417 279 b 326 424 358 288 335 376 b 326 571 319 472 319 522 b 431 717 335 624 363 717 b 549 524 517 717 544 590 b 533 382 551 476 547 426 b 475 292 522 347 504 313 b 417 279 458 281 436 275 z "},"Ó":{"ha":863,"x_min":0,"x_max":0,"o":"m 411 1039 b 532 1107 450 1064 488 1093 b 540 1235 590 1128 596 1208 b 496 1242 526 1242 511 1244 b 331 1151 447 1228 374 1182 b 308 1117 319 1143 311 1129 b 374 1028 296 1069 332 1028 b 411 1039 386 1028 399 1031 z m 458 1 b 814 504 751 8 814 265 b 422 972 810 746 685 972 b 94 733 265 972 154 872 b 44 478 60 654 43 564 b 458 1 49 213 179 1 z m 417 279 b 326 424 358 288 335 376 b 326 571 319 472 319 522 b 431 717 335 624 363 717 b 549 524 517 717 544 590 b 533 382 551 476 547 426 b 475 292 522 347 504 313 b 417 279 458 281 436 275 z "},"Ô":{"ha":863,"x_min":0,"x_max":0,"o":"m 339 1004 b 435 1081 372 1028 399 1061 b 440 1078 436 1082 439 1079 b 479 1039 454 1067 467 1053 b 528 1022 490 1028 511 1022 b 569 1038 543 1022 557 1029 b 590 1067 579 1044 585 1056 b 590 1114 596 1082 594 1099 b 506 1201 583 1140 528 1188 b 436 1219 485 1213 460 1219 b 338 1183 397 1219 369 1204 b 269 1131 314 1167 296 1143 b 231 1053 243 1118 229 1082 b 303 993 233 1018 268 993 b 339 1004 315 993 328 997 z m 458 1 b 814 504 751 8 814 265 b 422 972 810 746 685 972 b 94 733 265 972 154 872 b 44 478 60 654 43 564 b 458 1 49 213 179 1 z m 417 279 b 326 424 358 288 335 376 b 326 571 319 472 319 522 b 431 717 335 624 363 717 b 549 524 517 717 544 590 b 533 382 551 476 547 426 b 475 292 522 347 504 313 b 417 279 458 281 436 275 z "},"Õ":{"ha":863,"x_min":0,"x_max":0,"o":"m 503 1026 b 610 1178 575 1038 629 1107 b 546 1224 601 1206 574 1224 b 476 1171 515 1224 486 1204 b 379 1211 447 1192 417 1211 b 322 1201 361 1211 342 1207 b 317 1201 321 1200 318 1201 b 235 1121 275 1201 239 1163 b 321 1053 231 1078 278 1042 b 367 1069 338 1057 351 1064 b 376 1071 371 1071 374 1072 b 418 1043 390 1063 403 1051 b 503 1026 443 1029 474 1022 z m 458 1 b 814 504 751 8 814 265 b 422 972 810 746 685 972 b 94 733 265 972 154 872 b 44 478 60 654 43 564 b 458 1 49 213 179 1 z m 417 279 b 326 424 358 288 335 376 b 326 571 319 472 319 522 b 431 717 335 624 363 717 b 549 524 517 717 544 590 b 533 382 551 476 547 426 b 475 292 522 347 504 313 b 417 279 458 281 436 275 z "},"Ö":{"ha":863,"x_min":0,"x_max":0,"o":"m 361 1044 b 404 1133 397 1054 414 1096 b 338 1183 396 1158 364 1183 b 310 1179 328 1183 318 1182 b 268 1092 274 1169 258 1128 b 336 1040 275 1064 308 1040 b 361 1044 344 1040 353 1042 z m 633 1049 b 633 1157 668 1074 667 1132 b 582 1178 618 1167 601 1178 b 551 1171 571 1178 561 1175 b 556 1036 493 1143 494 1058 b 581 1032 563 1033 571 1032 b 633 1049 599 1032 618 1038 z m 458 1 b 814 504 751 8 814 265 b 422 972 810 746 685 972 b 94 733 265 972 154 872 b 44 478 60 654 43 564 b 458 1 49 213 179 1 z m 417 279 b 326 424 358 288 335 376 b 326 571 319 472 319 522 b 431 717 335 624 363 717 b 549 524 517 717 544 590 b 533 382 551 476 547 426 b 475 292 522 347 504 313 b 417 279 458 281 436 275 z "},"×":{"ha":683,"x_min":0,"x_max":0,"o":"m 303 199 b 376 278 331 222 354 250 b 392 264 381 275 390 268 b 475 190 396 219 433 190 b 621 346 550 190 621 269 b 597 411 619 369 611 393 b 538 468 581 433 558 450 b 576 504 550 481 563 493 b 621 547 592 518 611 529 b 572 704 647 596 614 669 b 461 753 538 731 506 753 b 410 738 442 753 424 749 b 314 650 375 711 343 682 b 251 715 292 671 272 693 b 192 736 240 729 214 736 b 60 613 126 736 69 674 b 67 557 57 594 60 575 b 154 460 75 536 138 475 b 131 432 146 450 138 442 b 72 410 110 432 86 425 b 57 331 54 390 51 357 b 236 178 74 253 156 178 b 303 199 260 178 285 183 z "},"Ø":{"ha":892,"x_min":0,"x_max":0,"o":"m 149 0 b 233 67 183 8 210 39 b 467 1 300 21 386 1 b 818 397 707 7 797 185 b 804 657 825 483 824 572 b 747 796 792 706 774 753 b 814 882 757 810 800 871 b 824 888 815 882 822 888 b 828 990 857 911 857 961 b 781 1010 814 1004 797 1010 b 721 983 758 1010 738 1000 b 651 900 694 958 674 929 b 426 972 590 946 507 972 b 103 733 272 972 161 869 b 53 478 68 654 51 564 b 138 168 54 371 79 257 b 107 135 132 163 113 139 b 107 6 56 106 54 31 b 149 0 119 0 135 -4 z m 336 578 b 371 676 342 611 351 647 b 413 711 382 690 396 706 b 439 717 421 715 429 717 b 504 685 463 717 488 703 b 335 428 449 597 394 511 b 336 578 326 476 328 528 z m 403 288 b 557 510 457 360 508 435 b 526 343 558 454 551 393 b 438 278 507 307 474 278 b 403 288 426 278 414 281 z "},"Ù":{"ha":901,"x_min":0,"x_max":0,"o":"m 542 1057 b 521 1176 585 1088 572 1163 b 443 1203 511 1179 453 1200 b 401 1197 429 1207 414 1204 b 385 1082 356 1176 349 1118 b 497 1042 396 1071 476 1042 b 542 1057 514 1042 529 1049 z m 807 310 b 825 910 860 503 844 710 b 676 975 825 965 714 975 b 556 939 640 975 581 971 b 547 907 549 931 546 918 b 543 582 556 799 554 690 b 440 338 538 529 515 338 b 358 447 383 338 367 403 b 353 606 350 499 351 553 b 368 921 356 711 367 815 b 214 976 368 971 250 976 b 97 957 175 976 135 972 b 64 921 82 951 64 938 b 69 469 63 771 56 619 b 440 -18 89 229 158 -18 b 807 310 651 -18 757 125 z "},"Ú":{"ha":901,"x_min":0,"x_max":0,"o":"m 543 1097 b 593 1167 565 1114 590 1139 b 525 1243 596 1210 564 1243 b 500 1239 517 1243 508 1242 b 454 1204 482 1232 469 1215 b 410 1181 440 1194 425 1188 b 376 1132 392 1172 381 1151 b 378 1097 372 1121 375 1108 b 408 1060 382 1082 396 1069 b 444 1051 418 1053 432 1051 b 543 1097 475 1051 519 1081 z m 807 310 b 825 910 860 503 844 710 b 676 975 825 965 714 975 b 556 939 640 975 581 971 b 547 907 549 931 546 918 b 543 582 556 799 554 690 b 440 338 538 529 515 338 b 358 447 383 338 367 403 b 353 606 350 499 351 553 b 368 921 356 711 367 815 b 214 976 368 971 250 976 b 97 957 175 976 135 972 b 64 921 82 951 64 938 b 69 469 63 771 56 619 b 440 -18 89 229 158 -18 b 807 310 651 -18 757 125 z "},"Û":{"ha":901,"x_min":0,"x_max":0,"o":"m 807 310 b 825 910 860 503 844 710 b 676 975 825 965 714 975 b 556 939 640 975 581 971 b 547 907 549 931 546 918 b 543 582 556 799 554 690 b 440 338 538 529 515 338 b 358 447 383 338 367 403 b 353 606 350 499 351 553 b 368 921 356 711 367 815 b 214 976 368 971 250 976 b 97 957 175 976 135 972 b 64 921 82 951 64 938 b 69 469 63 771 56 619 b 440 -18 89 229 158 -18 b 807 310 651 -18 757 125 z m 392 1029 b 439 1079 408 1046 421 1064 b 503 1021 460 1060 479 1038 b 542 1011 511 1014 531 1011 b 604 1056 569 1011 592 1032 b 604 1103 610 1071 608 1088 b 571 1143 600 1119 585 1132 l 540 1174 b 442 1224 514 1199 478 1224 b 351 1186 408 1224 376 1206 b 289 1122 328 1168 310 1144 b 318 1011 256 1088 272 1028 b 342 1007 326 1008 333 1007 b 392 1029 360 1007 376 1014 z "},"Ü":{"ha":901,"x_min":0,"x_max":0,"o":"m 625 1156 b 569 1185 611 1175 590 1185 b 504 1143 543 1185 517 1169 b 496 1108 500 1132 496 1119 b 564 1038 496 1071 526 1038 b 625 1156 619 1038 658 1107 z m 357 1058 b 314 1172 392 1100 367 1158 b 299 1175 308 1174 303 1175 b 228 1096 261 1175 232 1138 b 303 1026 225 1054 263 1026 b 357 1058 326 1026 343 1040 z m 807 310 b 825 910 860 503 844 710 b 676 975 825 965 714 975 b 556 939 640 975 581 971 b 547 907 549 931 546 918 b 543 582 556 799 554 690 b 440 338 538 529 515 338 b 358 447 383 338 367 403 b 353 606 350 499 351 553 b 368 921 356 711 367 815 b 214 976 368 971 250 976 b 97 957 175 976 135 972 b 64 921 82 951 64 938 b 69 469 63 771 56 619 b 440 -18 89 229 158 -18 b 807 310 651 -18 757 125 z "},"Ý":{"ha":936,"x_min":0,"x_max":0,"o":"m 638 57 b 651 94 646 67 650 81 b 639 378 656 132 639 340 b 781 614 682 458 732 536 b 928 878 832 700 882 788 b 906 918 936 893 921 910 b 686 967 853 951 751 967 b 610 940 656 967 618 964 b 550 788 589 890 572 838 b 486 678 532 749 511 713 b 396 838 447 725 422 782 b 336 947 378 875 358 911 b 286 967 324 964 307 967 b 72 901 221 967 117 925 b 7 842 51 890 8 865 b 10 832 7 839 8 835 b 322 372 104 672 214 522 l 322 100 b 489 0 322 21 428 0 b 638 57 547 0 608 17 z m 521 1036 b 546 1067 532 1043 536 1057 b 581 1083 550 1071 575 1081 b 546 1213 642 1119 617 1213 b 413 1115 494 1213 433 1160 b 453 1025 396 1081 418 1042 b 474 1021 460 1022 467 1021 b 521 1036 490 1021 507 1028 z "},"Þ":{"ha":789,"x_min":0,"x_max":0,"o":"m 371 38 b 379 60 376 43 379 51 b 378 213 379 110 379 161 b 435 208 396 210 415 208 b 732 350 543 208 672 254 b 706 644 786 436 774 568 b 492 724 651 704 569 724 b 374 715 453 724 413 719 b 375 894 374 775 375 835 b 228 971 375 960 275 971 b 81 894 179 971 81 956 b 83 58 76 615 83 338 b 231 1 83 8 190 1 b 371 38 283 1 347 10 z m 376 414 b 375 519 376 449 376 485 b 490 528 397 522 447 528 b 556 518 518 528 543 525 b 571 469 568 511 572 483 b 565 449 571 463 569 456 b 450 404 549 425 479 406 b 376 414 425 401 400 406 z "},"ß":{"ha":1001,"x_min":0,"x_max":0,"o":"m 340 3 b 354 61 353 18 356 42 b 350 401 344 175 346 289 b 396 589 353 467 369 531 b 526 721 419 640 471 726 b 586 638 563 717 596 672 b 553 590 582 619 568 601 b 481 551 532 572 507 560 b 503 456 440 536 472 486 b 567 414 521 439 543 422 b 624 385 586 406 606 397 b 664 319 646 371 674 343 b 558 283 651 289 592 283 b 469 296 529 285 499 289 b 425 219 433 304 424 257 b 458 103 426 179 436 136 b 676 42 490 54 610 42 b 939 183 779 42 883 94 b 972 328 965 225 979 279 b 906 442 965 371 939 413 b 726 536 856 486 788 508 b 786 626 749 564 771 594 b 739 911 825 708 806 851 b 568 964 693 953 628 964 b 43 335 172 964 51 674 b 63 69 42 290 46 113 b 247 -28 88 6 183 -28 b 340 3 279 -28 317 -22 z "},"à":{"ha":876,"x_min":0,"x_max":0,"o":"m 571 1069 b 536 1175 597 1107 581 1161 b 432 1210 524 1179 444 1207 b 369 1190 410 1215 385 1206 b 374 1089 340 1163 343 1115 b 501 1040 392 1074 478 1047 b 571 1069 525 1035 557 1049 z m 793 18 b 849 67 818 26 854 42 b 639 900 793 347 714 624 b 535 964 628 939 569 957 b 447 971 506 968 476 971 b 269 910 397 971 288 961 b 107 415 207 747 153 583 b 29 74 75 303 46 189 b 96 18 25 44 68 28 b 218 1 122 10 174 1 b 292 15 249 1 275 4 b 307 40 299 21 303 32 b 333 185 322 88 328 136 b 547 188 361 183 521 188 b 578 43 550 169 574 61 b 672 -3 588 7 629 -3 b 793 18 713 -3 756 3 z m 438 736 b 511 381 479 622 492 500 b 361 378 461 381 411 379 b 438 736 379 499 406 618 z "},"á":{"ha":876,"x_min":0,"x_max":0,"o":"m 432 1032 b 546 1079 469 1049 506 1069 b 588 1121 564 1085 579 1103 b 521 1215 607 1163 568 1218 b 375 1157 469 1210 422 1181 b 339 1097 354 1147 340 1121 b 407 1026 336 1058 371 1026 b 432 1032 415 1026 424 1028 z m 793 18 b 849 67 818 26 854 42 b 639 900 793 347 714 624 b 535 964 628 939 569 957 b 447 971 506 968 476 971 b 269 910 397 971 288 961 b 107 415 207 747 153 583 b 29 74 75 303 46 189 b 96 18 25 44 68 28 b 218 1 122 10 174 1 b 292 15 249 1 275 4 b 307 40 299 21 303 32 b 333 185 322 88 328 136 b 547 188 361 183 521 188 b 578 43 550 169 574 61 b 672 -3 588 7 629 -3 b 793 18 713 -3 756 3 z m 438 736 b 511 381 479 622 492 500 b 361 378 461 381 411 379 b 438 736 379 499 406 618 z "},"â":{"ha":876,"x_min":0,"x_max":0,"o":"m 367 1031 b 469 1096 404 1047 432 1083 b 540 1047 481 1092 531 1054 b 574 1038 550 1040 561 1038 b 646 1107 614 1038 643 1068 b 629 1151 647 1122 639 1139 b 565 1200 622 1163 576 1193 b 471 1236 538 1219 504 1235 b 390 1213 443 1236 414 1226 b 296 1149 378 1204 308 1157 b 272 1114 285 1140 276 1126 b 340 1025 261 1067 297 1025 b 367 1031 349 1025 358 1026 z m 793 18 b 849 67 818 26 854 42 b 639 900 793 347 714 624 b 535 964 628 939 569 957 b 447 971 506 968 476 971 b 269 910 397 971 288 961 b 107 415 207 747 153 583 b 29 74 75 303 46 189 b 96 18 25 44 68 28 b 218 1 122 10 174 1 b 292 15 249 1 275 4 b 307 40 299 21 303 32 b 333 185 322 88 328 136 b 547 188 361 183 521 188 b 578 43 550 169 574 61 b 672 -3 588 7 629 -3 b 793 18 713 -3 756 3 z m 438 736 b 511 381 479 622 492 500 b 361 378 461 381 411 379 b 438 736 379 499 406 618 z "},"ã":{"ha":876,"x_min":0,"x_max":0,"o":"m 597 1113 b 606 1161 601 1129 604 1144 b 593 1201 607 1175 601 1190 b 536 1232 579 1222 557 1232 b 474 1193 511 1232 486 1218 b 382 1236 446 1211 415 1233 b 318 1214 360 1238 336 1226 b 246 1132 301 1201 253 1151 b 313 1039 229 1083 267 1039 b 343 1046 322 1039 333 1042 b 376 1075 356 1053 369 1063 b 386 1085 379 1079 382 1089 b 476 1039 414 1067 443 1046 b 597 1113 528 1029 585 1063 z m 793 18 b 849 67 818 26 854 42 b 639 900 793 347 714 624 b 535 964 628 939 569 957 b 447 971 506 968 476 971 b 269 910 397 971 288 961 b 107 415 207 747 153 583 b 29 74 75 303 46 189 b 96 18 25 44 68 28 b 218 1 122 10 174 1 b 292 15 249 1 275 4 b 307 40 299 21 303 32 b 333 185 322 88 328 136 b 547 188 361 183 521 188 b 578 43 550 169 574 61 b 672 -3 588 7 629 -3 b 793 18 713 -3 756 3 z m 438 736 b 511 381 479 622 492 500 b 361 378 461 381 411 379 b 438 736 379 499 406 618 z "},"ä":{"ha":876,"x_min":0,"x_max":0,"o":"m 350 1067 b 397 1132 378 1076 394 1104 b 381 1176 399 1147 390 1164 b 351 1197 374 1186 363 1193 b 329 1201 344 1200 336 1201 b 301 1199 319 1201 310 1200 b 313 1058 208 1183 217 1058 b 350 1067 325 1058 338 1064 z m 607 1094 b 538 1197 631 1144 593 1201 b 500 1072 475 1192 456 1117 b 549 1056 511 1061 533 1056 b 607 1094 574 1056 597 1074 z m 793 18 b 849 67 818 26 854 42 b 639 900 793 347 714 624 b 535 964 628 939 569 957 b 447 971 506 968 476 971 b 269 910 397 971 288 961 b 107 415 207 747 153 583 b 29 74 75 303 46 189 b 96 18 25 44 68 28 b 218 1 122 10 174 1 b 292 15 249 1 275 4 b 307 40 299 21 303 32 b 333 185 322 88 328 136 b 547 188 361 183 521 188 b 578 43 550 169 574 61 b 672 -3 588 7 629 -3 b 793 18 713 -3 756 3 z m 438 736 b 511 381 479 622 492 500 b 361 378 461 381 411 379 b 438 736 379 499 406 618 z "},"å":{"ha":876,"x_min":0,"x_max":0,"o":"m 793 18 b 849 67 818 26 854 42 b 639 900 793 347 714 624 b 590 946 633 922 611 938 b 658 1010 617 963 642 983 b 672 1090 672 1033 678 1064 b 625 1165 665 1119 647 1146 b 531 1225 599 1192 564 1210 b 482 1232 515 1232 499 1235 b 447 1215 469 1229 458 1222 b 401 1229 440 1221 410 1229 b 319 1214 374 1232 342 1229 b 276 1156 300 1200 282 1179 b 276 1018 264 1111 264 1064 b 314 949 282 993 294 967 b 269 910 296 940 276 928 b 107 415 207 747 153 583 b 29 74 75 303 46 189 b 96 18 25 44 68 28 b 218 1 122 10 174 1 b 292 15 249 1 275 4 b 307 40 299 21 303 32 b 333 185 322 88 328 136 b 547 188 361 183 521 188 b 578 43 550 169 574 61 b 672 -3 588 7 629 -3 b 793 18 713 -3 756 3 z m 413 1047 b 406 1088 407 1060 406 1074 b 453 1101 422 1086 440 1092 b 490 1092 464 1094 478 1094 b 525 1069 497 1090 519 1074 b 425 1043 496 1051 460 1043 b 413 1047 421 1043 414 1043 z m 438 736 b 511 381 479 622 492 500 b 361 378 461 381 411 379 b 438 736 379 499 406 618 z "},"æ":{"ha":1128,"x_min":0,"x_max":0,"o":"m 1024 -1 b 1047 4 1032 -1 1040 0 b 1082 147 1089 29 1097 101 b 1051 189 1076 164 1067 181 b 833 200 1017 208 874 200 b 832 349 832 250 832 300 b 979 353 853 349 958 347 b 1018 386 996 356 1010 371 b 1028 493 1033 418 1038 458 b 994 543 1024 513 1013 533 b 829 554 968 556 860 554 l 829 767 b 943 761 867 765 906 761 b 1064 793 979 761 1036 765 b 1079 922 1090 818 1090 888 b 1065 949 1076 932 1072 940 b 943 971 1047 971 972 969 b 753 976 879 972 815 976 b 115 511 392 976 221 843 b 32 58 69 364 50 210 b 42 43 32 54 39 46 b 185 6 67 17 131 6 b 286 29 211 6 267 7 b 296 56 293 36 296 46 b 317 304 296 139 303 222 b 538 313 390 306 464 308 b 539 57 538 228 539 142 b 579 10 539 32 556 15 b 792 -6 613 -3 701 -6 b 1024 -1 888 -6 986 -3 z m 533 750 b 535 750 532 749 533 750 l 535 507 b 358 500 476 504 418 500 b 533 750 383 581 449 735 z "},"ç":{"ha":758,"x_min":0,"x_max":0,"o":"m 599 -185 b 518 -53 614 -128 574 -71 b 400 -33 481 -40 440 -36 b 424 3 408 -22 417 -10 b 699 143 531 3 651 39 b 722 268 717 181 724 225 b 707 303 722 281 717 294 b 601 333 682 328 635 333 b 482 296 556 333 501 324 b 476 272 478 289 476 281 b 451 196 476 247 472 214 b 419 188 443 190 431 188 b 317 342 360 188 326 296 b 338 669 294 449 300 567 b 422 771 351 708 382 771 b 463 710 456 771 463 736 b 476 676 463 697 468 685 b 585 650 497 658 543 650 b 654 658 611 650 636 653 b 706 707 681 668 701 678 b 671 853 707 757 697 810 b 426 971 622 933 524 971 b 50 603 210 971 85 799 b 86 235 28 482 38 349 b 278 31 125 146 188 69 b 226 -54 258 4 240 -24 b 299 -167 203 -106 243 -160 b 449 -178 349 -172 400 -171 b 396 -232 433 -197 417 -217 b 326 -283 363 -232 335 -249 b 404 -372 313 -333 356 -372 b 599 -185 479 -372 582 -253 z "},"è":{"ha":656,"x_min":0,"x_max":0,"o":"m 413 1050 b 413 1172 461 1072 460 1150 b 325 1214 401 1176 336 1210 b 304 1219 319 1218 311 1219 b 282 1215 297 1219 289 1218 b 265 1089 222 1200 214 1122 b 375 1042 283 1078 353 1042 b 413 1050 389 1042 401 1046 z m 556 4 b 567 6 560 4 564 6 b 618 110 601 17 618 74 b 610 164 619 128 617 147 b 582 196 606 176 594 190 b 363 207 547 210 399 207 b 361 356 363 256 363 306 b 506 358 381 356 488 357 b 553 424 532 360 547 399 b 526 547 560 460 558 528 b 360 560 500 565 392 560 b 358 772 360 631 358 701 b 481 768 399 772 440 768 b 613 839 540 768 599 772 b 592 960 617 869 614 938 b 492 975 575 974 514 975 b 101 947 418 979 167 983 b 72 919 89 940 78 932 b 64 879 65 907 65 893 b 68 63 63 607 68 335 b 75 38 68 54 71 44 b 121 11 86 22 104 15 b 190 1 143 4 167 3 b 556 4 236 -1 508 4 z "},"é":{"ha":656,"x_min":0,"x_max":0,"o":"m 494 1094 b 453 1218 546 1139 510 1218 b 425 1213 443 1218 435 1217 b 329 1178 393 1200 361 1189 b 347 1042 246 1150 274 1042 b 494 1094 376 1042 476 1081 z m 556 4 b 567 6 560 4 564 6 b 618 110 601 17 618 74 b 610 164 619 128 617 147 b 582 196 606 176 594 190 b 363 207 547 210 399 207 b 361 356 363 256 363 306 b 506 358 381 356 488 357 b 553 424 532 360 547 399 b 526 547 560 460 558 528 b 360 560 500 565 392 560 b 358 772 360 631 358 701 b 481 768 399 772 440 768 b 613 839 540 768 599 772 b 592 960 617 869 614 938 b 492 975 575 974 514 975 b 101 947 418 979 167 983 b 72 919 89 940 78 932 b 64 879 65 907 65 893 b 68 63 63 607 68 335 b 75 38 68 54 71 44 b 121 11 86 22 104 15 b 190 1 143 4 167 3 b 556 4 236 -1 508 4 z "},"ê":{"ha":656,"x_min":0,"x_max":0,"o":"m 494 1086 b 486 1121 496 1099 492 1110 b 432 1185 481 1133 442 1175 b 340 1225 407 1207 375 1225 b 275 1208 318 1225 296 1218 b 193 1154 260 1201 204 1167 b 176 1094 181 1139 172 1115 b 238 1038 182 1063 207 1044 b 304 1060 261 1031 289 1042 b 336 1083 313 1071 325 1078 b 381 1035 353 1069 364 1050 b 422 1018 392 1024 407 1018 b 494 1086 464 1018 490 1046 z m 556 4 b 567 6 560 4 564 6 b 618 110 601 17 618 74 b 610 164 619 128 617 147 b 582 196 606 176 594 190 b 363 207 547 210 399 207 b 361 356 363 256 363 306 b 506 358 381 356 488 357 b 553 424 532 360 547 399 b 526 547 560 460 558 528 b 360 560 500 565 392 560 b 358 772 360 631 358 701 b 481 768 399 772 440 768 b 613 839 540 768 599 772 b 592 960 617 869 614 938 b 492 975 575 974 514 975 b 101 947 418 979 167 983 b 72 919 89 940 78 932 b 64 879 65 907 65 893 b 68 63 63 607 68 335 b 75 38 68 54 71 44 b 121 11 86 22 104 15 b 190 1 143 4 167 3 b 556 4 236 -1 508 4 z "},"ë":{"ha":656,"x_min":0,"x_max":0,"o":"m 317 1092 b 313 1210 358 1122 356 1183 b 263 1219 297 1218 281 1219 b 201 1115 208 1219 175 1163 b 272 1079 215 1092 243 1079 b 317 1092 288 1079 304 1083 z m 543 1132 b 536 1178 546 1147 543 1164 b 476 1214 526 1197 499 1214 b 413 1178 449 1214 429 1201 b 410 1111 400 1160 401 1132 b 472 1072 422 1085 447 1072 b 543 1132 504 1072 536 1093 z m 556 4 b 567 6 560 4 564 6 b 618 110 601 17 618 74 b 610 164 619 128 617 147 b 582 196 606 176 594 190 b 363 207 547 210 399 207 b 361 356 363 256 363 306 b 506 358 381 356 488 357 b 553 424 532 360 547 399 b 526 547 560 460 558 528 b 360 560 500 565 392 560 b 358 772 360 631 358 701 b 481 768 399 772 440 768 b 613 839 540 768 599 772 b 592 960 617 869 614 938 b 492 975 575 974 514 975 b 101 947 418 979 167 983 b 72 919 89 940 78 932 b 64 879 65 907 65 893 b 68 63 63 607 68 335 b 75 38 68 54 71 44 b 121 11 86 22 104 15 b 190 1 143 4 167 3 b 556 4 236 -1 508 4 z "},"ì":{"ha":425,"x_min":0,"x_max":0,"o":"m 268 1175 b 232 1188 257 1182 244 1183 b 126 1236 194 1197 157 1214 b 83 1246 114 1244 97 1247 b 50 1121 19 1240 -1 1158 b 147 1069 79 1099 114 1083 b 222 1046 158 1064 210 1049 b 268 1175 299 1033 336 1136 z m 354 38 b 363 60 358 43 363 51 b 358 894 363 338 354 615 b 210 971 358 960 258 971 b 64 894 161 971 64 954 b 67 58 60 615 67 338 b 214 1 67 8 174 1 b 354 38 267 1 331 10 z "},"í":{"ha":424,"x_min":0,"x_max":0,"o":"m 210 1038 b 296 1096 225 1050 276 1092 b 319 1097 299 1096 317 1097 b 374 1189 363 1101 385 1147 b 299 1235 365 1222 333 1235 b 111 1135 233 1235 157 1181 b 96 1096 101 1125 96 1110 b 165 1019 92 1051 128 1019 b 210 1038 181 1019 196 1025 z m 354 38 b 363 60 360 43 363 51 b 358 894 363 338 356 615 b 211 971 358 960 258 971 b 64 894 163 971 64 956 b 67 58 60 615 67 338 b 214 1 67 8 174 1 b 354 38 267 1 331 10 z "},"î":{"ha":426,"x_min":0,"x_max":0,"o":"m 75 1014 b 217 1096 122 1042 167 1076 b 268 1043 236 1081 249 1058 b 313 1026 282 1032 297 1026 b 372 1131 360 1026 401 1079 b 314 1196 365 1143 325 1186 b 221 1236 290 1218 256 1236 b 156 1221 200 1236 175 1231 b 18 1142 107 1200 64 1168 b -7 1133 15 1140 -4 1135 b -42 1086 -25 1125 -36 1104 b -32 1035 -46 1069 -40 1050 b 26 1000 -21 1011 1 1000 b 75 1014 43 1000 60 1006 z m 356 38 b 364 60 361 43 364 51 b 360 894 364 338 357 615 b 213 971 360 960 261 971 b 65 894 164 971 65 956 b 69 58 61 615 69 338 b 215 1 69 7 175 1 b 356 38 268 1 332 10 z "},"ï":{"ha":425,"x_min":0,"x_max":0,"o":"m 383 1081 b 401 1132 397 1093 400 1114 b 329 1201 406 1172 369 1201 b 281 1178 308 1201 294 1192 b 263 1126 267 1165 264 1144 b 278 1082 261 1111 268 1094 b 328 1056 290 1064 308 1056 b 383 1081 347 1056 368 1065 z m 142 1160 b 81 1189 125 1179 103 1189 b 31 1168 63 1189 44 1182 b 67 1049 -10 1128 13 1064 b 88 1046 74 1047 81 1046 b 142 1160 144 1046 182 1113 z m 356 38 b 364 60 360 43 364 51 b 360 894 364 338 356 615 b 211 971 360 960 260 971 b 64 894 163 971 65 954 b 68 58 61 615 68 338 b 215 1 68 8 175 1 b 356 38 268 1 332 10 z "},"ð":{"ha":876,"x_min":0,"x_max":0,"o":"m 299 -12 b 486 0 361 -12 425 -12 b 790 268 622 25 735 147 b 826 631 840 378 856 513 b 442 969 781 819 632 949 b 363 974 415 972 389 974 b 224 965 317 974 269 969 b 185 951 210 964 196 960 b 158 915 174 942 165 929 b 143 836 149 890 144 863 b 136 561 140 800 136 596 b 124 561 136 557 128 560 b 100 567 117 565 108 567 b 79 563 93 567 86 565 b 94 381 -1 535 11 393 b 136 378 108 378 122 378 b 142 93 138 283 139 188 b 204 4 142 51 165 19 b 299 -12 233 -10 267 -12 z m 392 394 b 442 390 408 394 426 396 b 490 400 457 385 476 390 b 457 574 550 446 529 557 b 392 576 435 578 413 576 l 392 743 b 464 729 415 744 442 740 b 569 553 528 699 561 618 b 533 308 583 471 574 381 b 392 215 504 253 456 215 z "},"ñ":{"ha":957,"x_min":0,"x_max":0,"o":"m 796 4 b 894 58 833 8 892 22 l 894 81 b 889 911 894 183 888 808 b 743 975 853 953 797 975 b 596 896 694 975 601 954 b 606 483 592 842 606 538 b 394 857 524 600 467 733 b 211 972 346 942 310 972 b 64 888 160 972 67 954 b 68 63 63 613 68 338 b 214 0 68 11 176 0 b 364 61 253 0 364 10 b 364 457 364 193 365 325 b 603 47 401 403 574 106 b 696 1 618 13 661 4 b 796 4 729 -3 764 0 z m 396 1089 b 511 1046 433 1074 471 1053 b 589 1058 538 1042 567 1046 b 650 1151 621 1076 647 1114 b 635 1196 651 1167 643 1183 b 606 1217 628 1206 615 1211 b 583 1221 599 1219 590 1221 b 557 1218 574 1221 565 1219 b 521 1188 542 1214 529 1200 b 357 1239 467 1206 414 1243 b 258 1139 307 1232 269 1186 b 329 1043 246 1090 285 1043 b 396 1089 358 1043 386 1063 z "},"ò":{"ha":849,"x_min":0,"x_max":0,"o":"m 517 1056 b 522 1179 567 1079 571 1150 b 376 1218 517 1182 386 1218 b 306 1150 338 1222 308 1189 b 321 1106 304 1135 313 1118 b 486 1049 338 1082 454 1049 b 517 1056 497 1049 507 1051 z m 453 1 b 808 504 746 8 808 265 b 417 972 804 746 679 972 b 89 733 260 972 149 872 b 39 478 54 654 38 564 b 453 1 43 213 174 1 z m 411 279 b 321 424 353 288 329 376 b 321 571 314 472 314 522 b 425 717 329 624 357 717 b 543 524 511 717 539 590 b 528 382 546 476 542 426 b 469 292 517 347 499 313 b 411 279 453 281 431 275 z "},"ó":{"ha":849,"x_min":0,"x_max":0,"o":"m 406 1039 b 526 1107 444 1064 482 1093 b 535 1235 585 1128 590 1208 b 490 1242 521 1242 506 1244 b 325 1151 442 1228 368 1182 b 303 1117 314 1143 306 1129 b 368 1028 290 1069 326 1028 b 406 1039 381 1028 393 1031 z m 453 1 b 808 504 746 8 808 265 b 417 972 804 746 679 972 b 89 733 260 972 149 872 b 39 478 54 654 38 564 b 453 1 43 213 174 1 z m 411 279 b 321 424 353 288 329 376 b 321 571 314 472 314 522 b 425 717 329 624 357 717 b 543 524 511 717 539 590 b 528 382 546 476 542 426 b 469 292 517 347 499 313 b 411 279 453 281 431 275 z "},"ô":{"ha":849,"x_min":0,"x_max":0,"o":"m 333 1004 b 429 1081 367 1028 393 1061 b 435 1078 431 1082 433 1079 b 474 1039 449 1067 461 1053 b 522 1022 485 1028 506 1022 b 564 1038 538 1022 551 1029 b 585 1067 574 1044 579 1056 b 585 1114 590 1082 589 1099 b 500 1201 578 1140 522 1188 b 431 1219 479 1213 454 1219 b 332 1183 392 1219 364 1204 b 264 1131 308 1167 290 1143 b 225 1053 238 1118 224 1082 b 297 993 228 1018 263 993 b 333 1004 310 993 322 997 z m 453 1 b 808 504 746 8 808 265 b 417 972 804 746 679 972 b 89 733 260 972 149 872 b 39 478 54 654 38 564 b 453 1 43 213 174 1 z m 411 279 b 321 424 353 288 329 376 b 321 571 314 472 314 522 b 425 717 329 624 357 717 b 543 524 511 717 539 590 b 528 382 546 476 542 426 b 469 292 517 347 499 313 b 411 279 453 281 431 275 z "},"õ":{"ha":849,"x_min":0,"x_max":0,"o":"m 497 1026 b 604 1178 569 1038 624 1107 b 540 1224 596 1206 568 1224 b 471 1171 510 1224 481 1204 b 374 1211 442 1192 411 1211 b 317 1201 356 1211 336 1207 b 311 1201 315 1200 313 1201 b 229 1121 269 1201 233 1163 b 315 1053 225 1078 272 1042 b 361 1069 332 1057 346 1064 b 371 1071 365 1071 368 1072 b 413 1043 385 1063 397 1051 b 497 1026 438 1029 468 1022 z m 453 1 b 808 504 746 8 808 265 b 417 972 804 746 679 972 b 89 733 260 972 149 872 b 39 478 54 654 38 564 b 453 1 43 213 174 1 z m 411 279 b 321 424 353 288 329 376 b 321 571 314 472 314 522 b 425 717 329 624 357 717 b 543 524 511 717 539 590 b 528 382 546 476 542 426 b 469 292 517 347 499 313 b 411 279 453 281 431 275 z "},"ö":{"ha":849,"x_min":0,"x_max":0,"o":"m 356 1044 b 399 1133 392 1054 408 1096 b 332 1183 390 1158 358 1183 b 304 1179 322 1183 313 1182 b 263 1092 268 1169 253 1128 b 331 1040 269 1064 303 1040 b 356 1044 339 1040 347 1042 z m 628 1049 b 628 1157 663 1074 661 1132 b 576 1178 613 1167 596 1178 b 546 1171 565 1178 556 1175 b 550 1036 488 1143 489 1058 b 575 1032 557 1033 565 1032 b 628 1049 593 1032 613 1038 z m 453 1 b 808 504 746 8 808 265 b 417 972 804 746 679 972 b 89 733 260 972 149 872 b 39 478 54 654 38 564 b 453 1 43 213 174 1 z m 411 279 b 321 424 353 288 329 376 b 321 571 314 472 314 522 b 425 717 329 624 357 717 b 543 524 511 717 539 590 b 528 382 546 476 542 426 b 469 292 517 347 499 313 b 411 279 453 281 431 275 z "},"÷":{"ha":724,"x_min":0,"x_max":0,"o":"m 396 682 b 411 857 472 710 482 817 b 357 871 396 867 376 871 b 303 857 338 871 319 867 b 278 711 251 826 239 757 b 357 675 296 688 326 675 b 396 682 369 675 383 678 z m 665 375 b 689 483 683 407 693 446 b 651 563 685 513 672 542 b 561 600 629 588 593 600 b 186 588 436 599 311 581 b 132 593 168 589 150 593 b 114 592 125 593 119 593 b 33 468 64 581 31 519 b 56 390 36 442 42 413 b 149 343 83 353 104 346 b 253 338 183 339 218 338 b 535 350 347 338 440 349 b 589 329 550 336 569 329 b 665 375 618 329 649 346 z m 400 40 b 450 83 419 49 440 63 b 463 132 457 99 464 115 b 367 232 457 183 422 232 b 274 178 332 232 288 210 b 263 113 264 158 257 133 b 285 65 267 96 272 78 b 357 32 303 49 329 32 b 400 40 369 32 389 33 z "},"ø":{"ha":876,"x_min":0,"x_max":0,"o":"m 140 0 b 225 67 175 8 201 39 b 458 1 292 21 378 1 b 810 397 699 7 789 185 b 796 657 817 483 815 572 b 739 796 783 706 765 753 b 806 882 749 810 792 871 b 815 888 807 882 814 888 b 819 990 849 911 849 961 b 772 1010 806 1004 789 1010 b 713 983 750 1010 729 1000 b 643 900 686 958 665 929 b 418 972 582 946 499 972 b 94 733 264 972 153 869 b 44 478 60 654 43 564 b 129 168 46 371 71 257 b 99 135 124 163 104 139 b 99 6 47 106 46 31 b 140 0 111 0 126 -4 z m 328 578 b 363 676 333 611 343 647 b 404 711 374 690 388 706 b 431 717 413 715 421 717 b 496 685 454 717 479 703 b 326 428 440 597 386 511 b 328 578 318 476 319 528 z m 394 288 b 549 510 449 360 500 435 b 518 343 550 454 543 393 b 429 278 499 307 465 278 b 394 288 418 278 406 281 z "},"ù":{"ha":879,"x_min":0,"x_max":0,"o":"m 531 1057 b 510 1176 574 1088 561 1163 b 432 1203 500 1179 442 1200 b 390 1197 418 1207 403 1204 b 374 1082 344 1176 338 1118 b 486 1042 385 1071 465 1042 b 531 1057 503 1042 518 1049 z m 796 310 b 814 910 849 503 833 710 b 665 975 814 965 703 975 b 544 939 629 975 569 971 b 536 907 538 931 535 918 b 532 582 544 799 543 690 b 429 338 526 529 504 338 b 347 447 372 338 356 403 b 342 606 339 499 340 553 b 357 921 344 711 356 815 b 203 976 357 971 239 976 b 86 957 164 976 124 972 b 53 921 71 951 53 938 b 58 469 51 771 44 619 b 429 -18 78 229 147 -18 b 796 310 640 -18 746 125 z "},"ú":{"ha":879,"x_min":0,"x_max":0,"o":"m 532 1097 b 582 1167 554 1114 579 1139 b 514 1243 585 1210 553 1243 b 489 1239 506 1243 497 1242 b 443 1204 471 1232 458 1215 b 399 1181 429 1194 414 1188 b 365 1132 381 1172 369 1151 b 367 1097 361 1121 364 1108 b 397 1060 371 1082 385 1069 b 433 1051 407 1053 421 1051 b 532 1097 464 1051 508 1081 z m 796 310 b 814 910 849 503 833 710 b 665 975 814 965 703 975 b 544 939 629 975 569 971 b 536 907 538 931 535 918 b 532 582 544 799 543 690 b 429 338 526 529 504 338 b 347 447 372 338 356 403 b 342 606 339 499 340 553 b 357 921 344 711 356 815 b 203 976 357 971 239 976 b 86 957 164 976 124 972 b 53 921 71 951 53 938 b 58 469 51 771 44 619 b 429 -18 78 229 147 -18 b 796 310 640 -18 746 125 z "},"û":{"ha":879,"x_min":0,"x_max":0,"o":"m 796 310 b 814 910 849 503 833 710 b 665 975 814 965 703 975 b 544 939 629 975 569 971 b 536 907 538 931 535 918 b 532 582 544 799 543 690 b 429 338 526 529 504 338 b 347 447 372 338 356 403 b 342 606 339 499 340 553 b 357 921 344 711 356 815 b 203 976 357 971 239 976 b 86 957 164 976 124 972 b 53 921 71 951 53 938 b 58 469 51 771 44 619 b 429 -18 78 229 147 -18 b 796 310 640 -18 746 125 z m 381 1029 b 428 1079 397 1046 410 1064 b 492 1021 449 1060 468 1038 b 531 1011 500 1014 519 1011 b 593 1056 558 1011 581 1032 b 593 1103 599 1071 597 1088 b 560 1143 589 1119 574 1132 l 529 1174 b 431 1224 503 1199 467 1224 b 340 1186 397 1224 365 1206 b 278 1122 317 1168 299 1144 b 307 1011 244 1088 261 1028 b 331 1007 315 1008 322 1007 b 381 1029 349 1007 365 1014 z "},"ü":{"ha":879,"x_min":0,"x_max":0,"o":"m 614 1156 b 558 1185 600 1175 579 1185 b 493 1143 532 1185 506 1169 b 485 1108 489 1132 485 1119 b 553 1038 485 1071 515 1038 b 614 1156 608 1038 647 1107 z m 346 1058 b 303 1172 381 1100 356 1158 b 288 1175 297 1174 292 1175 b 217 1096 250 1175 221 1138 b 292 1026 214 1054 251 1026 b 346 1058 315 1026 332 1040 z m 796 310 b 814 910 849 503 833 710 b 665 975 814 965 703 975 b 544 939 629 975 569 971 b 536 907 538 931 535 918 b 532 582 544 799 543 690 b 429 338 526 529 504 338 b 347 447 372 338 356 403 b 342 606 339 499 340 553 b 357 921 344 711 356 815 b 203 976 357 971 239 976 b 86 957 164 976 124 972 b 53 921 71 951 53 938 b 58 469 51 771 44 619 b 429 -18 78 229 147 -18 b 796 310 640 -18 746 125 z "},"ý":{"ha":967,"x_min":0,"x_max":0,"o":"m 653 57 b 667 94 661 67 665 81 b 654 378 671 132 654 340 b 796 614 697 458 747 536 b 943 878 847 700 897 788 b 921 918 951 893 936 910 b 701 967 868 951 767 967 b 625 940 671 967 633 964 b 565 788 604 890 588 838 b 501 678 547 749 526 713 b 411 838 463 725 438 782 b 351 947 393 875 374 911 b 301 967 339 964 322 967 b 88 901 236 967 132 925 b 22 842 67 890 24 865 b 25 832 22 839 24 835 b 338 372 119 672 229 522 l 338 100 b 504 0 338 21 443 0 b 653 57 563 0 624 17 z m 536 1036 b 561 1067 547 1043 551 1057 b 596 1083 565 1071 590 1081 b 561 1213 657 1119 632 1213 b 428 1115 510 1213 449 1160 b 468 1025 411 1081 433 1042 b 489 1021 475 1022 482 1021 b 536 1036 506 1021 522 1028 z "},"þ":{"ha":779,"x_min":0,"x_max":0,"o":"m 354 38 b 363 60 360 43 363 51 b 361 213 363 110 363 161 b 418 208 379 210 399 208 b 715 350 526 208 656 254 b 689 644 769 436 757 568 b 475 724 635 704 553 724 b 357 715 436 724 396 719 b 358 894 357 775 358 835 b 211 971 358 960 258 971 b 64 894 163 971 64 956 b 67 58 60 615 67 338 b 214 1 67 8 174 1 b 354 38 267 1 331 10 z m 360 414 b 358 519 360 449 360 485 b 474 528 381 522 431 528 b 539 518 501 528 526 525 b 554 469 551 511 556 483 b 549 449 554 463 553 456 b 433 404 532 425 463 406 b 360 414 408 401 383 406 z "},"ÿ":{"ha":967,"x_min":0,"x_max":0,"o":"m 653 57 b 667 94 661 67 665 81 b 654 378 671 132 654 340 b 796 614 697 458 747 536 b 943 878 847 700 897 788 b 921 918 951 893 936 910 b 701 967 868 951 767 967 b 625 940 671 967 633 964 b 565 788 604 890 588 838 b 501 678 547 749 526 713 b 411 838 463 725 438 782 b 351 947 393 875 374 911 b 301 967 339 964 322 967 b 88 901 236 967 132 925 b 22 842 67 890 24 865 b 25 832 22 839 24 835 b 338 372 119 672 229 522 l 338 100 b 504 0 338 21 443 0 b 653 57 563 0 624 17 z m 354 1075 b 358 1185 390 1101 393 1156 b 306 1203 343 1197 325 1203 b 222 1132 260 1203 226 1178 b 238 1088 221 1117 229 1100 b 303 1061 251 1068 279 1061 b 354 1075 321 1061 339 1065 z m 706 1113 b 715 1153 713 1125 717 1139 b 646 1217 713 1193 679 1217 b 590 1189 626 1217 606 1208 b 576 1128 575 1172 571 1149 b 643 1075 586 1093 614 1075 b 706 1113 667 1075 692 1088 z "},"Ł":{"ha":688,"x_min":0,"x_max":0,"o":"m 615 4 b 626 6 619 4 624 6 b 678 110 661 17 678 74 b 671 164 679 128 676 147 b 642 196 665 176 654 190 b 422 207 607 210 458 207 b 419 471 422 294 421 383 b 485 508 429 476 476 501 b 418 628 543 557 493 647 b 419 893 418 715 418 804 b 263 972 419 960 311 972 b 125 888 206 972 125 960 b 125 440 124 738 124 589 b 99 422 122 438 104 425 b 79 419 97 422 82 419 b 43 389 64 415 53 403 b 103 276 7 338 46 276 b 128 281 110 276 119 278 l 128 63 b 136 38 128 54 131 44 b 182 11 146 22 164 15 b 250 1 204 4 226 3 b 615 4 296 -1 568 4 z "},"ł":{"ha":697,"x_min":0,"x_max":0,"o":"m 610 4 b 621 6 614 4 618 6 b 672 110 656 17 672 74 b 665 164 674 128 671 147 b 636 196 660 176 649 190 b 417 207 601 210 453 207 b 414 471 417 294 415 383 b 479 508 424 476 471 501 b 413 628 538 557 488 647 b 414 893 413 715 413 804 b 257 972 414 960 306 972 b 119 888 200 972 119 960 b 119 440 118 738 118 589 b 93 422 117 438 99 425 b 74 419 92 422 76 419 b 38 389 58 415 47 403 b 97 276 1 338 40 276 b 122 281 104 276 114 278 l 122 63 b 131 38 122 54 125 44 b 176 11 140 22 158 15 b 244 1 199 4 221 3 b 610 4 290 -1 563 4 z "},"Œ":{"ha":1253,"x_min":0,"x_max":0,"o":"m 1144 -7 b 1207 100 1189 -7 1207 65 b 1200 153 1208 117 1206 136 b 1171 185 1194 167 1183 179 b 951 196 1136 199 988 196 b 950 344 951 246 951 294 b 1094 347 969 344 1076 346 b 1142 413 1121 349 1138 388 b 1117 538 1149 450 1147 517 b 949 549 1089 554 981 549 b 947 761 949 619 947 690 b 1069 757 988 761 1029 757 b 1201 828 1128 757 1189 763 b 1181 949 1206 858 1203 926 b 1076 965 1164 964 1099 964 b 879 965 1011 968 944 968 b 661 908 818 964 689 963 b 654 888 657 903 656 896 b 422 968 590 939 504 967 b 94 729 265 968 156 868 b 44 474 60 650 43 560 b 449 -3 47 221 178 -3 b 657 58 521 -3 597 15 b 658 40 658 60 658 43 b 804 -10 671 -7 754 -10 b 1144 -7 917 -11 1031 -8 z m 417 275 b 369 307 399 278 381 292 b 326 419 344 338 333 379 b 326 567 319 468 319 518 b 431 713 335 619 363 713 b 549 519 517 713 544 586 b 533 378 551 472 547 422 b 475 288 522 343 504 308 b 417 275 458 276 436 271 z "},"œ":{"ha":1239,"x_min":0,"x_max":0,"o":"m 1139 -7 b 1201 100 1183 -7 1201 65 b 1194 153 1203 117 1200 136 b 1165 185 1189 167 1178 179 b 946 196 1131 199 982 196 b 944 344 946 246 946 294 b 1089 347 964 344 1071 346 b 1136 413 1115 349 1132 388 b 1111 538 1143 450 1142 517 b 943 549 1083 554 975 549 b 942 761 943 619 942 690 b 1064 757 982 761 1024 757 b 1196 828 1122 757 1183 763 b 1175 949 1200 858 1197 926 b 1071 965 1158 964 1093 964 b 874 965 1006 968 939 968 b 656 908 813 964 683 963 b 649 888 651 903 650 896 b 417 968 585 939 499 967 b 89 729 260 968 150 868 b 39 474 54 650 38 560 b 443 -3 42 221 172 -3 b 651 58 515 -3 592 15 b 653 40 653 60 653 43 b 799 -10 665 -7 749 -10 b 1139 -7 911 -11 1025 -8 z m 411 275 b 364 307 393 278 375 292 b 321 419 339 338 328 379 b 321 567 314 468 314 518 b 425 713 329 619 357 713 b 543 519 511 713 539 586 b 528 378 546 472 542 422 b 469 288 517 343 499 308 b 411 275 453 276 431 271 z "},"Š":{"ha":801,"x_min":0,"x_max":0,"o":"m 433 1029 b 528 1107 471 1044 499 1078 b 544 1146 538 1117 543 1132 b 475 1222 547 1189 514 1222 b 440 1213 464 1222 451 1219 b 407 1182 426 1206 417 1193 b 372 1225 394 1196 385 1211 b 329 1242 360 1236 346 1242 b 274 1218 310 1242 289 1233 b 275 1121 251 1194 251 1144 b 339 1049 297 1099 317 1072 b 401 1022 356 1032 378 1022 b 433 1029 413 1022 424 1025 z m 754 219 b 732 379 764 272 756 331 b 647 483 714 419 682 454 b 506 586 603 521 554 553 b 399 682 481 603 407 654 b 421 717 393 699 404 715 b 508 664 446 717 490 679 b 615 608 539 639 575 608 b 725 740 674 608 715 683 b 715 810 729 764 731 792 b 361 974 638 910 483 974 b 97 804 242 974 136 921 b 100 649 82 754 85 697 b 225 475 121 581 168 517 b 346 401 264 447 307 426 b 411 322 372 385 419 353 b 393 299 410 313 401 304 b 353 290 382 293 369 290 b 168 347 294 290 210 326 b 149 351 161 350 156 351 b 74 278 117 351 90 313 b 51 90 50 232 22 132 b 164 39 67 69 139 46 b 407 3 242 15 325 3 b 754 219 557 3 726 51 z "},"š":{"ha":786,"x_min":0,"x_max":0,"o":"m 426 1029 b 521 1107 464 1044 492 1078 b 538 1146 531 1117 536 1132 b 468 1222 540 1189 507 1222 b 433 1213 457 1222 444 1219 b 400 1182 419 1206 410 1193 b 365 1225 388 1196 378 1211 b 322 1242 353 1236 339 1242 b 267 1218 303 1242 282 1233 b 268 1121 244 1194 244 1144 b 332 1049 290 1099 310 1072 b 394 1022 349 1032 371 1022 b 426 1029 406 1022 417 1025 z m 747 219 b 725 379 757 272 749 331 b 640 483 707 419 675 454 b 499 586 596 521 547 553 b 392 682 474 603 400 654 b 414 717 386 699 397 715 b 501 664 439 717 483 679 b 608 608 532 639 568 608 b 718 740 667 608 708 683 b 708 810 722 764 724 792 b 354 974 631 910 476 974 b 90 804 235 974 129 921 b 93 649 75 754 78 697 b 218 475 114 581 161 517 b 339 401 257 447 300 426 b 404 322 365 385 413 353 b 386 299 403 313 394 304 b 346 290 375 293 363 290 b 161 347 288 290 203 326 b 142 351 154 350 149 351 b 67 278 110 351 83 313 b 44 90 43 232 15 132 b 157 39 60 69 132 46 b 400 3 235 15 318 3 b 747 219 550 3 719 51 z "},"Ÿ":{"ha":936,"x_min":0,"x_max":0,"o":"m 638 57 b 651 94 646 67 650 81 b 639 378 656 132 639 340 b 781 614 682 458 732 536 b 928 878 832 700 882 788 b 906 918 936 893 921 910 b 686 967 853 951 751 967 b 610 940 656 967 618 964 b 550 788 589 890 572 838 b 486 678 532 749 511 713 b 396 838 447 725 422 782 b 336 947 378 875 358 911 b 286 967 324 964 307 967 b 72 901 221 967 117 925 b 7 842 51 890 8 865 b 10 832 7 839 8 835 b 322 372 104 672 214 522 l 322 100 b 489 0 322 21 428 0 b 638 57 547 0 608 17 z m 339 1075 b 343 1185 375 1101 378 1156 b 290 1203 328 1197 310 1203 b 207 1132 244 1203 211 1178 b 222 1088 206 1117 214 1100 b 288 1061 236 1068 264 1061 b 339 1075 306 1061 324 1065 z m 690 1113 b 700 1153 697 1125 701 1139 b 631 1217 697 1193 664 1217 b 575 1189 611 1217 590 1208 b 561 1128 560 1172 556 1149 b 628 1075 571 1093 599 1075 b 690 1113 651 1075 676 1088 z "},"Ž":{"ha":871,"x_min":0,"x_max":0,"o":"m 796 6 b 815 15 803 7 810 11 b 838 160 844 43 849 121 b 817 196 833 172 828 188 b 792 200 810 200 800 201 b 649 194 744 194 697 194 b 403 200 567 196 485 200 b 586 464 471 283 529 374 b 772 750 647 560 704 658 b 800 811 785 768 796 789 b 671 969 813 889 749 969 b 131 975 492 969 311 975 b 88 946 113 975 96 961 b 72 865 75 922 71 893 b 131 781 75 828 92 781 l 429 781 b 235 469 361 678 300 572 b 71 249 185 393 129 319 b 31 126 43 217 24 168 b 222 6 44 35 144 8 b 585 3 267 6 540 3 b 796 6 614 3 767 1 z m 486 1018 b 596 1107 529 1036 563 1074 b 608 1175 611 1124 614 1153 b 542 1221 600 1204 571 1221 b 497 1204 525 1221 510 1217 b 453 1161 482 1190 468 1175 b 417 1210 439 1176 428 1193 b 364 1236 404 1228 385 1236 b 292 1167 322 1236 294 1207 b 307 1122 290 1151 299 1135 b 350 1067 313 1115 344 1074 b 414 1017 367 1046 389 1026 b 450 1011 425 1014 438 1011 b 486 1018 463 1011 475 1014 z "},"ž":{"ha":875,"x_min":0,"x_max":0,"o":"m 797 6 b 817 15 804 7 811 11 b 839 160 846 43 850 121 b 818 196 835 172 829 188 b 793 200 811 200 801 201 b 650 194 746 194 699 194 b 404 200 568 196 486 200 b 588 464 472 283 531 374 b 774 750 649 560 706 658 b 801 811 786 768 797 789 b 672 969 814 889 750 969 b 132 975 493 969 313 975 b 89 946 114 975 97 961 b 74 865 76 922 72 893 b 132 781 76 828 93 781 l 431 781 b 236 469 363 678 301 572 b 72 249 186 393 131 319 b 32 126 44 217 25 168 b 224 6 46 35 146 8 b 586 3 268 6 542 3 b 797 6 615 3 768 1 z m 488 1018 b 597 1107 531 1036 564 1074 b 610 1175 613 1124 615 1153 b 543 1221 601 1204 572 1221 b 499 1204 526 1221 511 1217 b 454 1161 483 1190 469 1175 b 418 1210 440 1176 429 1193 b 365 1236 406 1228 386 1236 b 293 1167 324 1236 296 1207 b 308 1122 292 1151 300 1135 b 351 1067 314 1115 346 1074 b 415 1017 368 1046 390 1026 b 451 1011 426 1014 439 1011 b 488 1018 464 1011 476 1014 z "},"ƒ":{"ha":714,"x_min":0,"x_max":0,"o":"m 490 160 b 497 389 507 235 508 314 b 578 393 524 390 551 390 b 615 411 592 394 606 401 b 579 529 656 451 635 519 b 471 528 564 532 488 528 b 458 647 464 567 458 607 b 535 750 458 701 472 750 b 613 732 560 750 589 742 b 638 732 619 729 629 729 b 683 868 675 749 685 826 b 614 974 683 929 669 956 b 551 983 593 979 572 982 b 383 964 522 983 410 975 b 306 861 344 949 315 900 b 297 525 290 810 296 578 b 274 528 290 525 282 526 b 228 399 197 542 160 438 b 303 385 249 386 276 386 b 300 240 304 338 306 289 b 181 122 292 160 260 122 b 153 133 168 122 158 125 b 93 169 140 156 118 169 b 83 11 6 169 0 47 b 278 -35 144 -15 211 -35 b 490 160 401 -35 464 47 z "},"ˇ":{"ha":418,"x_min":0,"x_max":0,"o":"m 319 735 b 372 815 339 761 356 788 b 313 921 403 867 361 921 b 268 904 297 921 282 915 b 207 814 256 893 217 828 b 179 856 200 822 179 844 b 108 925 179 894 147 925 b 36 844 69 925 38 888 b 157 674 36 797 111 697 b 211 660 172 665 192 660 b 319 735 260 660 294 697 z "},"˜":{"ha":485,"x_min":0,"x_max":0,"o":"m 443 853 b 404 960 463 893 446 944 b 382 964 397 963 389 964 b 313 907 350 964 321 940 b 311 899 311 904 313 901 b 301 890 308 896 306 889 b 228 953 275 908 256 938 b 182 967 214 961 197 967 b 100 926 150 967 124 946 b 92 924 97 924 94 924 b 36 854 65 911 44 882 b 108 769 25 811 67 769 b 142 781 119 769 132 774 b 181 813 156 790 168 801 b 300 747 211 782 256 747 b 443 853 365 747 417 797 z "},"ẞ":{"ha":1004,"x_min":0,"x_max":0,"o":"m 349 3 b 363 61 361 18 364 42 b 358 401 353 175 354 289 b 404 589 361 467 378 531 b 535 721 428 640 479 726 b 594 638 571 717 604 672 b 561 590 590 619 576 601 b 489 551 540 572 515 560 b 511 456 449 536 481 486 b 575 414 529 439 551 422 b 632 385 594 406 614 397 b 672 319 654 371 682 343 b 567 283 660 289 600 283 b 478 296 538 285 507 289 b 433 219 442 304 432 257 b 467 103 435 179 444 136 b 685 42 499 54 618 42 b 947 183 788 42 892 94 b 981 328 974 225 988 279 b 914 442 974 371 947 413 b 735 536 864 486 796 508 b 794 626 757 564 779 594 b 747 911 833 708 814 851 b 576 964 701 953 636 964 b 51 335 181 964 60 674 b 71 69 50 290 54 113 b 256 -28 96 6 192 -28 b 349 3 288 -28 325 -22 z "},"‘":{"ha":403,"x_min":0,"x_max":0,"o":"m 271 679 b 347 833 283 694 333 818 b 306 986 386 882 357 950 b 215 1014 281 1003 247 1014 b 121 961 171 1014 144 997 b 43 794 106 939 53 819 b 44 747 38 779 40 763 b 189 643 60 689 129 643 b 271 679 215 643 254 660 z "},"’":{"ha":403,"x_min":0,"x_max":0,"o":"m 271 679 b 347 833 283 694 333 818 b 306 986 386 882 357 950 b 215 1014 281 1003 247 1014 b 121 961 171 1014 144 997 b 43 794 106 939 53 819 b 44 747 38 779 40 763 b 189 643 60 689 129 643 b 271 679 215 643 254 660 z "},"‚":{"ha":369,"x_min":0,"x_max":0,"o":"m 243 -149 b 319 7 256 -132 306 -10 b 278 158 358 56 329 124 b 186 186 253 176 219 186 b 133 175 168 186 149 183 b 93 135 117 165 104 150 b 15 -33 78 111 25 -7 b 17 -81 10 -47 13 -65 b 160 -183 33 -139 100 -183 b 243 -149 188 -183 225 -169 z "},"“":{"ha":757,"x_min":0,"x_max":0,"o":"m 272 679 b 349 833 285 694 335 818 b 307 986 388 882 358 950 b 217 1014 282 1003 249 1014 b 122 961 172 1014 146 997 b 44 794 107 939 54 819 b 46 747 39 779 42 763 b 190 643 61 689 131 643 b 272 679 217 643 256 660 z m 622 646 b 699 801 636 663 686 785 b 658 953 739 850 710 918 b 568 982 632 971 600 982 b 469 924 524 982 489 964 b 396 761 458 901 404 785 b 396 715 390 747 393 731 b 472 628 406 679 438 643 b 540 611 493 619 517 611 b 622 646 567 611 606 626 z "},"”":{"ha":757,"x_min":0,"x_max":0,"o":"m 272 679 b 349 833 285 694 335 818 b 307 986 388 882 358 950 b 217 1014 282 1003 249 1014 b 122 961 172 1014 146 997 b 44 794 107 939 54 819 b 46 747 39 779 42 763 b 190 643 61 689 131 643 b 272 679 217 643 256 660 z m 622 646 b 699 801 636 663 686 785 b 658 953 739 850 710 918 b 568 982 632 971 600 982 b 469 924 524 982 489 964 b 396 761 458 901 404 785 b 396 715 390 747 393 731 b 472 628 406 679 438 643 b 540 611 493 619 517 611 b 622 646 567 611 606 626 z "},"„":{"ha":729,"x_min":0,"x_max":0,"o":"m 251 -131 b 328 25 264 -114 314 8 b 286 176 367 74 338 142 b 197 206 260 194 229 206 b 99 147 151 206 118 188 b 24 -15 86 125 32 8 b 25 -61 18 -29 21 -46 b 101 -149 35 -97 67 -133 b 169 -165 122 -157 146 -165 b 251 -131 196 -165 233 -150 z m 601 -162 b 678 -7 615 -146 665 -24 b 638 144 718 42 689 110 b 549 174 611 161 581 174 b 461 133 517 174 478 161 b 375 -47 444 108 385 -19 b 375 -93 369 -61 372 -78 b 518 -197 390 -153 457 -197 b 601 -162 544 -197 585 -182 z "},"‰":{"ha":1124,"x_min":0,"x_max":0,"o":"m 331 43 b 760 833 478 304 613 572 b 771 874 767 846 772 860 b 756 917 771 889 764 904 b 626 969 726 951 671 969 b 513 911 579 969 535 951 b 88 154 369 660 229 407 b 76 103 78 139 74 119 b 236 -7 89 36 175 -7 b 331 43 276 -7 310 7 z m 246 774 b 153 904 271 844 215 904 b 86 878 131 904 107 896 b 125 707 26 824 47 728 b 150 704 133 704 142 704 b 246 774 194 704 231 733 z m 736 146 b 775 178 743 150 771 171 b 796 224 785 192 794 207 b 774 303 799 251 793 283 b 697 336 749 325 732 336 b 596 261 660 336 606 296 b 592 211 590 244 588 226 b 614 165 596 194 601 178 b 690 132 635 142 660 132 b 736 146 707 132 724 136 z m 1093 217 b 1081 282 1094 239 1093 264 b 1029 324 1068 300 1050 318 b 996 329 1018 328 1007 329 b 901 260 958 329 911 296 b 897 210 896 243 893 225 b 992 126 908 164 943 126 b 1093 217 1043 126 1088 167 z "},"‹":{"ha":501,"x_min":0,"x_max":0,"o":"m 407 274 b 450 389 453 285 476 349 b 410 417 440 403 425 413 b 303 515 389 424 321 506 b 349 568 321 529 336 549 b 390 732 372 606 410 692 b 358 750 383 746 372 750 b 288 724 336 750 310 736 b 90 588 258 706 115 610 b 42 511 68 567 49 540 b 72 429 36 479 47 449 b 143 388 93 413 118 400 b 354 285 172 374 328 303 b 407 274 368 275 389 269 z "},"›":{"ha":501,"x_min":0,"x_max":0,"o":"m 149 285 b 185 306 161 293 172 299 b 403 411 257 342 333 369 b 435 432 414 417 425 424 b 428 572 478 468 465 531 b 243 706 404 599 272 688 b 144 749 219 721 175 749 b 125 744 138 749 131 747 b 107 710 113 739 107 722 b 200 515 103 654 156 549 b 93 417 182 506 114 424 b 56 392 79 413 65 404 b 93 275 26 354 46 289 b 108 272 99 274 103 272 b 149 285 122 272 138 278 z "},"€":{"ha":913,"x_min":0,"x_max":0,"o":"m 829 143 b 853 268 847 181 854 225 b 838 303 853 281 847 294 b 732 333 813 328 765 333 b 613 296 686 333 632 324 b 607 272 608 289 607 281 b 582 196 607 247 603 214 b 550 188 572 190 561 188 b 468 272 507 188 482 239 b 549 329 514 276 531 286 b 497 443 565 375 542 429 b 435 439 486 447 446 440 l 435 482 b 508 499 460 485 486 486 b 540 544 525 508 533 526 b 543 588 546 557 544 572 b 464 658 540 629 506 663 b 554 771 476 692 513 771 b 593 710 586 771 593 735 b 607 676 593 697 599 685 b 715 650 628 658 674 650 b 785 658 742 650 767 653 b 836 707 811 668 832 678 b 801 853 838 757 828 810 b 557 971 753 933 654 971 b 186 626 350 971 226 814 b 150 626 179 626 157 624 b 126 632 143 629 135 632 b 75 608 108 632 88 622 b 107 458 31 560 44 479 b 169 454 126 451 149 453 b 172 411 171 440 171 425 b 158 413 168 411 163 410 b 135 417 151 415 143 417 b 114 414 128 417 121 415 b 93 256 50 393 38 294 b 151 240 110 243 131 240 b 214 243 172 239 193 242 b 554 3 278 92 389 3 b 829 143 663 3 779 39 z "},"−":{"ha":735,"x_min":0,"x_max":0,"o":"m 689 597 b 672 731 701 640 696 693 b 567 788 647 768 611 788 b 192 775 442 786 317 768 b 138 781 172 776 154 781 b 44 696 92 781 53 738 b 44 610 39 668 39 638 b 121 526 51 576 88 532 b 257 517 165 519 211 517 b 539 529 350 517 446 528 b 597 507 556 514 576 507 b 689 597 646 507 678 554 z "}}}
